<svg width="528" height="200" viewBox="0 0 528 200" fill="none" xmlns="http://www.w3.org/2000/svg">
<path d="M94.3716 29.3945C94.3716 31.2043 94.7734 32.4778 95.1055 33.5305C95.5261 34.8637 95.835 35.843 95.0751 37.1094C93.2586 40.1367 78.1798 48.5352 69.5476 48.5352C58.0579 48.5352 57.8893 39.3825 57.8893 29.2969C57.8893 19.2112 58.0579 8.78906 69.5476 8.78906C78.1798 8.78906 93.1656 18.3594 95.0751 21.3867C95.4443 22.2066 95.2324 23.2415 94.9475 24.6325C94.6895 25.8927 94.3716 27.445 94.3716 29.3945Z" fill="currentColor"/>
<path fill-rule="evenodd" clip-rule="evenodd" d="M172.183 144.922C159.218 169.614 132.797 186.523 102.311 186.523C71.2479 186.523 44.4044 168.967 31.7166 143.509C22.7159 141.644 8.24121 129.317 8.24121 120.117C8.24121 110.29 13.6029 102.391 24.1341 104.673C25.6931 84.118 35.6466 65.8312 50.6764 53.0366C51.7964 51.9898 52.8997 51.108 53.9207 50.4204C54.6067 49.8967 55.3019 49.3839 56.0061 48.8822C56.8228 49.7432 57.73 50.5133 58.7316 51.1837C60.5484 52.055 62.6672 52.635 65.0893 52.8648C65.4922 56.1643 64.2683 62.0382 59.7989 72.461C56.9462 78.2605 55.3048 81.08 54.1672 83.034L54.167 83.0345C53.7416 83.7652 53.3867 84.3748 53.0652 84.9741C51.5006 87.8906 48.7436 91.1133 43.216 97.2656C41.412 94.2792 41.2959 90.8612 41.096 84.9745V84.9741C41.0213 82.7773 40.935 80.2368 40.745 77.2466C35.1472 87.0548 31.9597 98.3415 31.9597 110.352C31.9597 148.105 63.4572 178.711 102.311 178.711C128.185 178.711 150.796 165.139 163.017 144.922H172.183ZM23.9516 112.55C24.1363 118.883 25.1164 125.022 26.7983 130.876C22.412 126.824 17.9899 122.393 17.9899 118.066C17.9899 113.508 21.0739 113.013 23.6473 112.6C23.7496 112.583 23.8511 112.567 23.9516 112.55Z" fill="currentColor"/>
<path d="M94.7491 74.9267C97.2119 76.8463 99.8406 78.7197 102.412 80.4296V41.9329C101.336 41.9249 100.251 41.9192 99.442 41.9262C98.7681 41.932 98.1143 42.135 97.5397 42.4772C84.1187 50.4708 73.5975 53.3856 65.9403 52.9303C65.9331 53.1734 65.9295 53.4332 65.9295 53.7109C65.9295 61.1538 81.2058 84.668 97.1857 90.4297C97.1857 86.1016 96.1226 80.4415 94.7491 74.9267Z" fill="currentColor"/>
<path d="M83.6179 113.379C80.3824 117.019 78.6858 114.803 76.6811 112.185C75.1363 110.167 73.4087 107.91 70.6531 107.91C67.771 107.91 66.4923 109.994 65.3194 111.906C63.9156 114.194 62.6634 116.235 58.9948 114.16C56.5932 107.422 63.2708 100.586 70.6531 100.586C78.0353 100.586 85.1254 106.152 83.6179 113.379Z" fill="currentColor"/>
<path d="M117.186 147.949C117.186 153.99 110.772 159.766 102.613 159.766C94.4535 159.766 87.7385 153.99 87.7385 147.949C88.1233 145.781 91.8564 145.902 97.248 146.079H97.2508L97.2521 146.079C98.9002 146.133 100.703 146.191 102.613 146.191C104.657 146.191 106.566 146.112 108.286 146.04H108.288L108.29 146.04C113.434 145.825 116.884 145.681 117.186 147.949Z" fill="currentColor"/>
<path d="M110.112 29.3945C110.112 31.2043 109.71 32.4778 109.378 33.5305C108.957 34.8637 108.648 35.843 109.408 37.1094C111.225 40.1367 126.304 48.5352 134.936 48.5352C146.426 48.5352 146.594 39.3825 146.594 29.2969C146.594 19.2112 146.426 8.78906 134.936 8.78906C126.304 8.78906 111.318 18.3594 109.408 21.3867C109.039 22.2066 109.251 23.2415 109.536 24.6325C109.794 25.8927 110.112 27.445 110.112 29.3945Z" fill="currentColor"/>
<path d="M124.609 100.564C124.824 100.439 125.147 100.321 125.578 100.209C126.022 100.097 126.465 100.042 126.909 100.042C127.542 100.042 128.1 100.135 128.582 100.321C129.076 100.495 129.393 100.775 129.532 101.161C129.76 101.808 130.007 102.56 130.274 103.418C130.54 104.276 130.806 105.165 131.072 106.086C131.338 106.994 131.598 107.895 131.851 108.791C132.105 109.674 132.327 110.457 132.517 111.141C132.365 111.315 132.136 111.452 131.832 111.552C131.528 111.664 131.167 111.72 130.749 111.72C130.445 111.72 130.185 111.695 129.969 111.645C129.767 111.595 129.595 111.521 129.456 111.421C129.329 111.322 129.222 111.191 129.133 111.029C129.057 110.868 128.987 110.681 128.924 110.47L128.582 109.183H125.141C125.039 109.556 124.938 109.941 124.837 110.339C124.735 110.737 124.634 111.123 124.533 111.496C124.355 111.558 124.165 111.608 123.962 111.645C123.772 111.695 123.538 111.72 123.259 111.72C122.613 111.72 122.131 111.614 121.814 111.402C121.51 111.179 121.358 110.874 121.358 110.488C121.358 110.314 121.383 110.14 121.434 109.966C121.485 109.792 121.542 109.587 121.605 109.35C121.694 109.015 121.814 108.598 121.966 108.101C122.131 107.603 122.308 107.068 122.498 106.496C122.689 105.912 122.891 105.315 123.107 104.705C123.322 104.096 123.525 103.524 123.715 102.989C123.905 102.442 124.076 101.957 124.228 101.534C124.393 101.111 124.52 100.788 124.609 100.564ZM126.89 102.97C126.712 103.493 126.51 104.077 126.281 104.724C126.066 105.358 125.87 106.005 125.692 106.664H128.049C127.872 105.993 127.688 105.34 127.498 104.705C127.321 104.059 127.156 103.48 127.004 102.97H126.89Z" fill="currentColor"/>
<path d="M137.401 111.458C137.262 111.496 137.04 111.533 136.736 111.57C136.444 111.608 136.153 111.626 135.862 111.626C135.57 111.626 135.31 111.601 135.082 111.552C134.867 111.514 134.683 111.44 134.531 111.328C134.379 111.216 134.265 111.06 134.189 110.861C134.113 110.663 134.075 110.401 134.075 110.078V100.228C134.214 100.203 134.436 100.172 134.74 100.135C135.044 100.085 135.336 100.06 135.614 100.06C135.906 100.06 136.159 100.085 136.375 100.135C136.603 100.172 136.793 100.247 136.945 100.359C137.097 100.471 137.211 100.626 137.287 100.825C137.363 101.024 137.401 101.285 137.401 101.609V111.458Z" fill="currentColor"/>
<path fill-rule="evenodd" clip-rule="evenodd" d="M125.801 125.48V120.437H133.837V124.083C133.837 125.02 134.611 125.779 135.565 125.779H136.429C137.384 125.779 138.158 125.02 138.158 124.083V120.437H142.305C143.26 120.437 144.033 119.677 144.033 118.741V115.349H147.058C148.012 115.349 148.786 114.59 148.786 113.653V112.805C148.786 111.868 148.012 111.109 147.058 111.109H144.033V108.565H147.058C148.012 108.565 148.786 107.806 148.786 106.869V106.021C148.786 105.085 148.012 104.325 147.058 104.325H144.033V101.782H147.058C148.012 101.782 148.786 101.022 148.786 100.086V99.2376C148.786 98.301 148.012 97.5417 147.058 97.5417H144.033V94.1499C144.033 93.2132 143.26 92.4539 142.305 92.4539H138.158V75.7915L138.169 75.7863C138.162 75.6618 138.158 75.5363 138.158 75.4099C138.158 72.1317 140.866 69.4742 144.206 69.4742C146.707 69.4742 148.853 70.9634 149.774 73.0874C149.005 73.4826 148.292 73.9699 147.651 74.5343C146.868 74.1713 145.993 73.9684 145.07 73.9684C141.73 73.9684 139.022 76.6259 139.022 79.9041C139.022 83.1823 141.73 85.8398 145.07 85.8398C148.411 85.8398 151.119 83.1823 151.119 79.9041C151.119 79.0858 150.95 78.3061 150.645 77.5968C151.702 76.7092 153.075 76.1731 154.575 76.1731C157.916 76.1731 160.624 78.8306 160.624 82.1088C160.624 82.8399 160.489 83.5401 160.243 84.1868C159.346 84.4325 158.488 84.7704 157.681 85.1896C156.792 84.6863 155.761 84.3983 154.661 84.3983C151.321 84.3983 148.613 87.0558 148.613 90.334C148.613 93.6123 151.321 96.2698 154.661 96.2698C158.002 96.2698 160.71 93.6123 160.71 90.334C160.71 89.729 160.618 89.1451 160.446 88.5952C161.46 88.1856 162.57 87.9597 163.734 87.9597C168.507 87.9597 172.375 91.7562 172.375 96.4394C172.375 99.8585 168.573 103.647 167.343 104.146C166.629 104.622 166.24 105.046 166.111 105.258C165.981 105.47 165.773 105.827 165.722 106.233C165.67 106.644 165.679 106.7 165.808 107.208C165.938 107.717 166.543 108.099 166.543 108.099C166.543 108.099 166.715 108.253 167.343 108.659C167.97 109.066 172.375 112.947 172.375 116.366C172.375 121.05 168.507 124.846 163.734 124.846C162.542 124.846 161.405 124.609 160.372 124.18C160.591 123.566 160.71 122.905 160.71 122.217C160.71 118.939 158.002 116.282 154.661 116.282C151.321 116.282 148.613 118.939 148.613 122.217C148.613 125.496 151.321 128.153 154.661 128.153C155.664 128.153 156.61 127.914 157.443 127.49C158.209 127.908 159.023 128.252 159.875 128.512C160.352 129.361 160.624 130.337 160.624 131.375C160.624 134.654 157.916 137.311 154.575 137.311C153.007 137.311 151.579 136.726 150.504 135.766C150.898 134.978 151.119 134.092 151.119 133.156C151.119 129.878 148.411 127.22 145.07 127.22C141.73 127.22 139.022 129.878 139.022 133.156C139.022 136.434 141.73 139.092 145.07 139.092C145.872 139.092 146.637 138.939 147.337 138.661C147.994 139.29 148.736 139.834 149.544 140.275C148.526 142.144 146.517 143.416 144.206 143.416C140.997 143.416 138.371 140.964 138.17 137.864L138.158 137.862V129.171C138.158 128.234 137.384 127.475 136.429 127.475H135.565C134.611 127.475 133.837 128.234 133.837 129.171V137.905H133.846C134.072 143.328 138.624 147.656 144.206 147.656C148.471 147.656 152.135 145.129 153.727 141.517C154.007 141.54 154.29 141.551 154.575 141.551C160.302 141.551 164.944 136.995 164.944 131.375C164.944 130.576 164.85 129.799 164.673 129.053C171.393 128.581 176.696 123.082 176.696 116.366C176.696 112.33 174.78 108.733 171.792 106.403C174.78 104.073 176.696 100.476 176.696 96.4394C176.696 89.7693 171.464 84.2984 164.808 83.7629C164.897 83.2246 164.944 82.672 164.944 82.1088C164.944 76.489 160.302 71.9333 154.575 71.9333C154.369 71.9333 154.164 71.9392 153.961 71.9508C152.518 68.0338 148.695 65.2344 144.206 65.2344C138.479 65.2344 133.837 69.7901 133.837 75.4099C133.837 75.5234 133.839 75.6365 133.843 75.7491H133.837V92.4539H125.801V88.8077C125.801 87.8711 125.027 87.1118 124.073 87.1118H123.209C122.254 87.1118 121.481 87.8711 121.481 88.8077V92.4539H117.247C116.292 92.4539 115.519 93.2132 115.519 94.1499V97.5417H112.494C111.54 97.5417 110.766 98.301 110.766 99.2376V100.086C110.766 101.022 111.54 101.782 112.494 101.782H115.519V104.325H112.494C111.54 104.325 110.766 105.085 110.766 106.021V106.869C110.766 107.806 111.54 108.565 112.494 108.565H115.519V111.109H112.494C111.54 111.109 110.766 111.868 110.766 112.805V113.653C110.766 114.59 111.54 115.349 112.494 115.349H115.519V118.741C115.519 119.677 116.292 120.437 117.247 120.437H121.481V125.48H125.801ZM145.07 81.6C146.025 81.6 146.798 80.8407 146.798 79.9041C146.798 78.9675 146.025 78.2082 145.07 78.2082C144.116 78.2082 143.342 78.9675 143.342 79.9041C143.342 80.8407 144.116 81.6 145.07 81.6ZM156.39 90.334C156.39 91.2707 155.616 92.03 154.661 92.03C153.707 92.03 152.933 91.2707 152.933 90.334C152.933 89.3974 153.707 88.6381 154.661 88.6381C155.616 88.6381 156.39 89.3974 156.39 90.334ZM154.661 123.913C155.616 123.913 156.39 123.154 156.39 122.217C156.39 121.281 155.616 120.521 154.661 120.521C153.707 120.521 152.933 121.281 152.933 122.217C152.933 123.154 153.707 123.913 154.661 123.913ZM146.798 133.156C146.798 134.093 146.025 134.852 145.07 134.852C144.116 134.852 143.342 134.093 143.342 133.156C143.342 132.219 144.116 131.46 145.07 131.46C146.025 131.46 146.798 132.219 146.798 133.156ZM120.271 97.1177H139.281V115.773H120.271V97.1177Z" fill="currentColor"/>
<path d="M228.253 140.59H211.859L241.708 58.2031H260.67L290.56 140.59H274.166L251.52 75.0988H250.858L228.253 140.59ZM228.792 108.287H273.504V120.275H228.792V108.287Z" fill="currentColor"/>
<path d="M301.066 140.59V78.7997H315.39V89.2992H316.135C317.46 85.7591 319.654 82.9968 322.718 81.0122C325.782 79.0009 329.439 77.9952 333.689 77.9952C337.995 77.9952 341.624 79.0143 344.577 81.0525C347.558 83.0639 349.656 85.8127 350.87 89.2992H351.532C352.94 85.8664 355.314 83.1309 358.653 81.0927C362.02 79.0277 366.009 77.9952 370.618 77.9952C376.469 77.9952 381.244 79.792 384.942 83.3857C388.641 86.9794 390.49 92.2224 390.49 99.1147V140.59H375.462V101.367C375.462 97.5324 374.413 94.7299 372.315 92.9599C370.218 91.163 367.651 90.2646 364.615 90.2646C360.999 90.2646 358.17 91.3642 356.128 93.5633C354.113 95.7356 353.106 98.5649 353.106 102.051V140.59H338.409V100.764C338.409 97.5727 337.415 95.0249 335.428 93.1208C333.468 91.2167 330.901 90.2646 327.727 90.2646C325.575 90.2646 323.615 90.801 321.849 91.8737C320.082 92.9197 318.675 94.4081 317.626 96.339C316.577 98.2431 316.053 100.469 316.053 103.017V140.59H301.066Z" fill="currentColor"/>
<path d="M433.432 141.796C427.222 141.796 421.84 140.469 417.286 137.814C412.732 135.159 409.199 131.444 406.688 126.671C404.204 121.897 402.962 116.319 402.962 109.936C402.962 103.553 404.204 97.9615 406.688 93.161C409.199 88.3605 412.732 84.6327 417.286 81.9777C421.84 79.3227 427.222 77.9952 433.432 77.9952C439.642 77.9952 445.024 79.3227 449.578 81.9777C454.132 84.6327 457.651 88.3605 460.135 93.161C462.647 97.9615 463.903 103.553 463.903 109.936C463.903 116.319 462.647 121.897 460.135 126.671C457.651 131.444 454.132 135.159 449.578 137.814C445.024 140.469 439.642 141.796 433.432 141.796ZM433.515 130.13C436.882 130.13 439.697 129.232 441.96 127.435C444.224 125.611 445.907 123.171 447.011 120.114C448.143 117.056 448.709 113.65 448.709 109.896C448.709 106.114 448.143 102.695 447.011 99.6377C445.907 96.5536 444.224 94.0997 441.96 92.276C439.697 90.4523 436.882 89.5405 433.515 89.5405C430.065 89.5405 427.194 90.4523 424.904 92.276C422.64 94.0997 420.943 96.5536 419.811 99.6377C418.707 102.695 418.155 106.114 418.155 109.896C418.155 113.65 418.707 117.056 419.811 120.114C420.943 123.171 422.64 125.611 424.904 127.435C427.194 129.232 430.065 130.13 433.515 130.13Z" fill="currentColor"/>
<path d="M475.795 140.59V131.337L508.584 91.391V90.868H476.871V78.7997H526.924V88.736L495.708 127.998V128.521H528V140.59H475.795Z" fill="currentColor"/>
</svg>
