<svg width="696" height="941" viewBox="0 0 696 941" fill="none" xmlns="http://www.w3.org/2000/svg">
<path d="M547.674 371.5C481.388 319.37 448.911 285.869 397.174 220.5C397.174 220.5 360.084 162.682 342.674 122.5C323.103 77.3311 305.674 2 305.674 2C305.674 2 282.174 86.5 273.174 142C266.743 181.658 259.82 238.998 261.674 277C267.406 394.5 304.174 421 324.674 450C345.174 479 359.174 507 353.174 540.5C342.174 583 316.174 602.5 292.174 612C241.174 626 201.395 613.966 174.174 583C152.729 551.924 151.896 523.63 159.674 479C172.462 425.162 203.174 376 217.674 356C232.174 336 215.174 328.976 192.674 340.5C170.174 352.024 145.174 362.5 104.674 397.5C64.174 432.5 17.1741 503.5 4.67403 579C-7.826 654.5 6.52961 702.5 26.6741 751.5C46.8185 800.5 101.174 869.5 176.674 904.5C252.174 939.5 335.674 945.5 407.174 936.5C471.463 928.408 540.674 906.915 592.174 856C636.174 812.5 659.736 774.235 677.674 707C690.9 640.876 690.206 603.478 669.674 536C639.24 466.613 611.811 430.809 547.674 371.5Z" fill="currentColor"/>
<path d="M556.674 369.5C490.388 317.37 457.911 283.869 406.174 218.5C406.174 218.5 369.084 160.682 351.674 120.5C332.103 75.3311 314.674 0 314.674 0C314.674 0 291.174 84.5 282.174 140C275.743 179.658 268.82 236.998 270.674 275C276.406 392.5 313.174 419 333.674 448C354.174 477 368.174 505 362.174 538.5C351.174 581 325.174 600.5 301.174 610C250.174 624 210.395 611.966 183.174 581C161.729 549.924 160.896 521.63 168.674 477C181.462 423.162 212.174 374 226.674 354C241.174 334 224.174 326.976 201.674 338.5C179.174 350.024 154.174 360.5 113.674 395.5C73.174 430.5 26.1741 501.5 13.674 577C1.174 652.5 15.5296 700.5 35.6741 749.5C55.8185 798.5 110.174 867.5 185.674 902.5C261.174 937.5 344.674 943.5 416.174 934.5C480.463 926.408 549.674 904.915 601.174 854C645.174 810.5 668.736 772.235 686.674 705C699.9 638.876 699.206 601.478 678.674 534C648.24 464.613 620.811 428.809 556.674 369.5Z" fill="url(#paint0_radial_546_2500)"/>
<defs>
<radialGradient id="paint0_radial_546_2500" cx="0" cy="0" r="1" gradientUnits="userSpaceOnUse" gradientTransform="translate(572.174 227.501) rotate(123.604) scale(1016.35 743.016)">
<stop stop-color="#9E0924"/>
<stop offset="0.5" stop-color="#D93C48"/>
<stop offset="0.744792" stop-color="#F2F6F7"/>
<stop offset="0.885417" stop-color="#D93C48" stop-opacity="0.8"/>
<stop offset="1" stop-color="#77E1F2"/>
</radialGradient>
</defs>
</svg>