<svg width="24" height="24" viewBox="0 0 24 24" fill="none" xmlns="http://www.w3.org/2000/svg">
<g clip-path="url(#clip0_587_3059)">
<path d="M0 12C0 5.37258 5.37258 0 12 0C18.6274 0 24 5.37258 24 12C24 18.6274 18.6274 24 12 24C5.37258 24 0 18.6274 0 12Z" fill="white"/>
<path fill-rule="evenodd" clip-rule="evenodd" d="M17.096 7.38967L9.93602 14.2996L8.03602 12.2696C7.68602 11.9396 7.13602 11.9196 6.73602 12.1996C6.34602 12.4896 6.23602 12.9996 6.47602 13.4096L8.72602 17.0696C8.94602 17.4096 9.32601 17.6196 9.75601 17.6196C10.166 17.6196 10.556 17.4096 10.776 17.0696C11.136 16.5996 18.006 8.40967 18.006 8.40967C18.906 7.48967 17.816 6.67967 17.096 7.37967V7.38967Z" fill="black"/>
</g>
<defs>
<clipPath id="clip0_587_3059">
<rect width="24" height="24" fill="white"/>
</clipPath>
</defs>
</svg>
