<svg width="60" height="60" viewBox="0 0 60 60" fill="none" xmlns="http://www.w3.org/2000/svg">
<path fill-rule="evenodd" clip-rule="evenodd" d="M9.83266 37.8607C9.83266 34.6394 7.22129 32.0281 4 32.0281V53.8322C7.22129 53.8322 9.83266 51.2208 9.83266 47.9995V37.8607ZM11.6991 34.0722C11.6991 34.0722 17.2693 33.6464 19.0191 34.0722C20.0979 34.3348 20.9882 35.1692 21.7789 35.9103C22.2708 36.3713 22.7241 36.7962 23.1603 37.0248C23.9278 37.4272 26.7791 37.5001 29.521 37.5702C30.8423 37.604 32.1382 37.6372 33.1633 37.7062C36.3154 37.9186 36.3976 42.832 33.1633 42.9869C31.6229 43.0607 29.7614 43.0601 28.1817 43.0596C26.4445 43.059 25.0479 43.0586 24.7934 43.1573C24.3075 43.3456 24.4421 44.5934 24.9392 44.7187C25.4364 44.8441 28.9929 45.0026 32.2009 45.0026C33.4549 45.0026 34.3881 44.9743 34.8256 44.8607C35.263 44.7471 35.9338 44.5484 36.5462 43.9754C40.806 39.9898 47.6283 35.1794 49.5822 34.8672C51.5362 34.5549 52.9652 34.5478 53.8401 34.8672C56.3632 35.7882 56.3818 36.926 55.3857 39.5516C54.1871 42.7109 41.8248 50.5956 35.7588 53.7186C29.6929 56.8416 18.815 53.3211 17.9109 52.9521C17.0068 52.583 11.6991 52.2139 11.6991 52.2139V34.0722Z" fill="currentColor"/>
<path d="M45.1787 19.4793C45.1787 27.476 38.5197 33.9586 30.3054 33.9586C22.0911 33.9586 15.4321 27.476 15.4321 19.4793C15.4321 19.0983 15.4473 18.7207 15.4769 18.3471L18.0994 18.4783C18.0712 18.8083 18.0568 19.1422 18.0568 19.4793C18.0568 26.0648 23.5407 31.4034 30.3054 31.4034C37.0701 31.4034 42.554 26.0648 42.554 19.4793C42.554 12.8938 37.0701 7.55517 30.3054 7.55517C26.6814 7.55517 23.425 9.08732 21.1825 11.5225L23.084 13.1893L17.3415 13.8863L17.4533 8.25369L19.2319 9.81276C21.9549 6.85847 25.9072 5 30.3054 5C38.5197 5 45.1787 11.4826 45.1787 19.4793Z" fill="currentColor"/>
<path fill-rule="evenodd" clip-rule="evenodd" d="M32.0807 20.8234C34.2396 20.0865 35.7878 18.0851 35.7878 15.7316C35.7878 12.7525 33.307 10.3374 30.2467 10.3374C27.1865 10.3374 24.7057 12.7525 24.7057 15.7316C24.7057 18.0851 26.2538 20.0865 28.4127 20.8234C24.7211 21.2124 21.9644 22.7509 21.9644 24.5896C21.9644 26.722 25.6725 28.4507 30.2467 28.4507C34.821 28.4507 38.5291 26.722 38.5291 24.5896C38.5291 22.7509 35.7724 21.2124 32.0807 20.8234Z" fill="currentColor"/>
</svg>
