<svg width="24" height="24" viewBox="0 0 24 24" fill="none" xmlns="http://www.w3.org/2000/svg">
<path d="M11.52 16.2104C11.68 16.2504 11.84 16.2504 12 16.2504C12.76 16.2504 13.44 15.8104 13.8 15.1304C13.88 14.9304 14 14.6904 14.12 14.4504C14.48 13.7704 14.8 13.0504 15.2 12.3704L16.36 10.4504C16.4401 10.2904 16.4 10.1304 16.28 9.97043C16.16 9.81045 15.96 9.81045 15.8 9.89042L13.88 11.0504C13.2 11.4504 12.48 11.8104 11.8 12.1304C11.6 12.2104 11.36 12.3304 11.12 12.4504C10.28 12.8905 9.84001 13.8104 10.04 14.7304C10.2 15.4504 10.8 16.0504 11.52 16.2104ZM11.48 13.1704C11.68 13.0504 11.92 12.9704 12.16 12.8504C12.88 12.4904 13.64 12.1304 14.32 11.7304L14.84 11.4104L14.52 11.9304C14.08 12.6504 13.72 13.3704 13.4 14.0904C13.32 14.3304 13.2 14.5304 13.08 14.7704C12.84 15.2904 12.28 15.5304 11.72 15.4104C11.28 15.3304 10.92 14.9704 10.84 14.5304C10.72 13.9704 10.96 13.4104 11.48 13.1704Z" fill="currentColor"/>
<path d="M23.1431 9.80976C23.138 9.78281 23.1304 9.75605 23.12 9.72998C23.1096 9.70383 23.0963 9.67987 23.0808 9.65794C22.4814 8.22281 21.6105 6.92677 20.5332 5.83458C20.518 5.81198 20.5004 5.79033 20.48 5.76998C20.4597 5.74964 20.438 5.73197 20.4154 5.71678C18.2453 3.57623 15.2702 2.25 12 2.25C10.4335 2.25 8.93489 2.55469 7.55977 3.10692C7.53281 3.11198 7.50605 3.11958 7.48003 3.12998C7.45392 3.14044 7.42992 3.15375 7.40798 3.16922C5.97286 3.76861 4.67681 4.63945 3.58463 5.71678C3.56203 5.73197 3.54038 5.74964 3.52003 5.76998C3.49969 5.79033 3.48197 5.81198 3.46683 5.83458C1.32623 8.0047 0 10.9798 0 14.25C0 16.97 0.879984 19.57 2.60002 21.69C2.68003 21.81 2.80003 21.85 2.92003 21.85H21.08C21.2 21.85 21.32 21.81 21.4 21.69C23.12 19.57 24 16.97 24 14.25C24 12.6835 23.6953 11.1849 23.1431 9.80976ZM20.92 21.05H3.12C2.57911 20.3525 2.12991 19.6042 1.77492 18.818L2.88 18.37C3.08002 18.29 3.15998 18.05 3.08002 17.85C3 17.65 2.76 17.5701 2.56003 17.65L1.47675 18.0892C1.07484 16.995 0.848906 15.8382 0.807469 14.65H3.6C3.84 14.65 3.99998 14.49 3.99998 14.25C3.99998 14.01 3.84 13.85 3.6 13.85H0.807984C0.852844 12.5887 1.10873 11.379 1.54148 10.255L2.64 10.73C2.67998 10.77 2.76 10.77 2.79998 10.77C2.95997 10.77 3.07997 10.69 3.15998 10.53C3.24 10.33 3.15998 10.09 2.95997 10.01L1.85034 9.53016C2.35186 8.45995 3.01781 7.48073 3.81544 6.62545L4.63997 7.44998C4.71998 7.53 4.79995 7.56998 4.91995 7.56998C5.03995 7.56998 5.11997 7.53 5.19994 7.44998C5.35992 7.29 5.35992 7.05 5.19994 6.88997L4.37541 6.06544C5.27152 5.22975 6.30342 4.5382 7.43372 4.02928L7.87997 5.13C7.91995 5.28998 8.07998 5.37 8.23997 5.37C8.27995 5.37 8.31998 5.37 8.39995 5.33002C8.59997 5.25 8.67994 5.01 8.59997 4.81003L8.16267 3.73134C9.24178 3.33464 10.3976 3.10078 11.6 3.05803V5.85005C11.6 6.09005 11.76 6.25003 12 6.25003C12.24 6.25003 12.3999 6.09005 12.3999 5.85005V3.05798C13.6612 3.10284 14.871 3.35873 15.995 3.79148L15.5199 4.89005C15.4399 5.09006 15.5199 5.33006 15.72 5.41003C15.7599 5.45002 15.84 5.45002 15.8799 5.45002C16.0399 5.45002 16.2 5.33002 16.2399 5.21002L16.7198 4.10039C17.79 4.60191 18.7692 5.26786 19.6245 6.06548L18.8 6.89002C18.64 7.05 18.64 7.29 18.8 7.45003C18.88 7.53005 18.96 7.57003 19.08 7.57003C19.16 7.57003 19.28 7.53005 19.3599 7.45003L20.1845 6.6255C21.0202 7.52161 21.7117 8.55351 22.2206 9.68381L21.1199 10.1301C20.9199 10.2101 20.8399 10.4501 20.9199 10.65C20.9599 10.81 21.1199 10.89 21.2799 10.89C21.3199 10.89 21.3599 10.8501 21.4399 10.8501L22.5186 10.4128C22.9153 11.4919 23.1492 12.6477 23.1919 13.8501H20.4C20.16 13.8501 20 14.01 20 14.25C20 14.49 20.16 14.65 20.4 14.65H23.1926C23.1491 15.8966 22.9033 17.1086 22.4699 18.25L21.36 17.77C21.16 17.69 20.92 17.77 20.84 17.97C20.76 18.1701 20.84 18.4101 21.04 18.49L22.1641 18.9761C21.8271 19.7046 21.4112 20.3994 20.92 21.05Z" fill="currentColor"/>
<path d="M11.6 16.6504C9.20005 16.6504 7.32003 17.8504 6.80005 19.7304C6.80005 19.8504 6.80005 20.0104 6.88006 20.0904C6.96008 20.2104 7.08008 20.2504 7.20008 20.2504H16.0001C16.1201 20.2504 16.2401 20.2104 16.3201 20.0904C16.4001 19.9704 16.4401 19.8504 16.4001 19.7304C15.84 17.8504 14 16.6504 11.6 16.6504ZM11.8267 19.4504L11.16 18.4504C11.04 18.2504 10.8 18.2104 10.6 18.3304C10.4 18.4504 10.36 18.6904 10.48 18.8905L10.8533 19.4505H7.80003C8.40003 18.2105 9.84003 17.4505 11.64 17.4505C13.4 17.4505 14.84 18.2104 15.44 19.4505H11.8267V19.4504Z" fill="currentColor"/>
</svg>
