<svg width="25" height="24" viewBox="0 0 25 24" fill="none" xmlns="http://www.w3.org/2000/svg">
<path fill-rule="evenodd" clip-rule="evenodd" d="M5.94922 3V8.25L6.69922 9H11.9492V7.5H8.16772L9.57922 6.0885C10.072 5.58507 10.6597 5.18436 11.3084 4.90957C11.9571 4.63477 12.6538 4.49135 13.3583 4.48758C14.0627 4.48382 14.7609 4.6198 15.4125 4.88765C16.0641 5.1555 16.656 5.54991 17.1542 6.04804C17.6523 6.54618 18.0467 7.13816 18.3146 7.78972C18.5824 8.44129 18.7184 9.1395 18.7146 9.84396C18.7109 10.5484 18.5674 11.2451 18.2926 11.8938C18.0179 12.5425 17.6171 13.1302 17.1137 13.623L9.31822 21.42L10.3982 22.5L18.1952 14.703C19.4808 13.4172 20.2029 11.6734 20.2028 9.85522C20.2027 8.03701 19.4802 6.29332 18.1945 5.00775C16.9087 3.72218 15.1649 3.00003 13.3467 3.00017C11.5285 3.00031 9.78479 3.72273 8.49922 5.0085L7.44922 6.0585V3H5.94922Z" fill="currentColor"/>
</svg>
