<svg width="24" height="24" viewBox="0 0 24 24" fill="none" xmlns="http://www.w3.org/2000/svg">
<path fill-rule="evenodd" clip-rule="evenodd" d="M21.3101 16.1379V5.784C21.3101 5.46703 21.2721 5.23241 21.0826 5.04248L16.2672 0.227586C16.1228 0.0831724 15.9226 0 15.7177 0H3.70863C3.21787 0 2.68945 0.379035 2.68945 1.21076V16.1379H21.3101ZM12.2067 13.6552C12.2067 13.8836 12.0217 14.069 11.7929 14.069C11.5641 14.069 11.3791 13.8836 11.3791 13.6552V12.4138C11.3791 12.1854 11.5641 12 11.7929 12C12.0217 12 12.2067 12.1854 12.2067 12.4138V13.6552ZM15.517 1.40317C15.517 1.21366 15.7459 1.1189 15.8799 1.25297L20.0572 5.43021C20.1912 5.56428 20.0965 5.7931 19.907 5.7931H15.517V1.40317ZM15.1032 9.93104V8.27586C15.1032 8.04786 14.9179 7.86207 14.6895 7.86207C14.4606 7.86207 14.2757 7.67669 14.2757 7.44828C14.2757 7.21986 14.4606 7.03448 14.6895 7.03448C15.3739 7.03448 15.9308 7.59145 15.9308 8.27586V9.93104C15.9308 10.3874 16.302 10.7586 16.7584 10.7586C16.9872 10.7586 17.1722 10.944 17.1722 11.1724C17.1722 11.4008 16.9872 11.5862 16.7584 11.5862C16.302 11.5862 15.9308 11.9574 15.9308 12.4138V14.069C15.9308 14.7534 15.3739 15.3103 14.6895 15.3103C14.4606 15.3103 14.2757 15.125 14.2757 14.8966C14.2757 14.6681 14.4606 14.4828 14.6895 14.4828C14.9179 14.4828 15.1032 14.297 15.1032 14.069V12.4138C15.1032 11.9172 15.3275 11.4761 15.6751 11.1724C15.3275 10.8687 15.1032 10.4276 15.1032 9.93104ZM11.7929 9.10345C12.1355 9.10345 12.4136 9.38152 12.4136 9.72414C12.4136 10.0668 12.1355 10.3448 11.7929 10.3448C11.4503 10.3448 11.1722 10.0668 11.1722 9.72414C11.1722 9.38152 11.4503 9.10345 11.7929 9.10345ZM6.82738 10.7586C7.2838 10.7586 7.65497 10.3874 7.65497 9.93104V8.27586C7.65497 7.59145 8.21194 7.03448 8.89635 7.03448C9.12518 7.03448 9.31014 7.21986 9.31014 7.44828C9.31014 7.67669 9.12518 7.86207 8.89635 7.86207C8.66794 7.86207 8.48256 8.04786 8.48256 8.27586V9.93104C8.48256 10.4276 8.25828 10.8687 7.91069 11.1724C8.25828 11.4761 8.48256 11.9172 8.48256 12.4138V14.069C8.48256 14.297 8.66794 14.4828 8.89635 14.4828C9.12518 14.4828 9.31014 14.6681 9.31014 14.8966C9.31014 15.125 9.12518 15.3103 8.89635 15.3103C8.21194 15.3103 7.65497 14.7534 7.65497 14.069V12.4138C7.65497 11.9574 7.2838 11.5862 6.82738 11.5862C6.59856 11.5862 6.41359 11.4008 6.41359 11.1724C6.41359 10.944 6.59856 10.7586 6.82738 10.7586Z" fill="currentColor"/>
<path d="M13.9258 19.0295C13.8298 18.9013 13.7201 18.809 13.5977 18.7523C13.4752 18.6956 13.3461 18.6675 13.2099 18.6675C13.0705 18.6675 12.9377 18.6936 12.811 18.7465C12.6844 18.7995 12.5715 18.8889 12.4717 19.0151C12.372 19.1413 12.2934 19.3043 12.2371 19.5046C12.1804 19.7044 12.1502 19.9494 12.1465 20.2399C12.1502 20.5229 12.1796 20.7642 12.2342 20.964C12.2888 21.1639 12.3641 21.3269 12.4606 21.4536C12.557 21.5802 12.6662 21.672 12.7887 21.7308C12.9112 21.7895 13.0403 21.8185 13.1764 21.8185C13.3159 21.8185 13.4487 21.7912 13.5753 21.7366C13.7019 21.682 13.8149 21.5922 13.9146 21.468C14.0143 21.3439 14.093 21.1804 14.1492 20.9785C14.2055 20.7766 14.2361 20.5308 14.2399 20.2403C14.2361 19.9573 14.2068 19.7169 14.1521 19.5191C14.0975 19.3213 14.0222 19.1578 13.9258 19.0295Z" fill="currentColor"/>
<path fill-rule="evenodd" clip-rule="evenodd" d="M2.68945 23.1723V16.9655H21.3101V23.1723C21.3101 23.5899 20.8053 23.9999 20.291 23.9999H3.70863C3.19428 23.9999 2.68945 23.5899 2.68945 23.1723ZM7.34918 21.8325C7.42076 21.6988 7.45676 21.5337 7.45676 21.3376V18.0897H6.76656V21.2805C6.75869 21.465 6.6958 21.5966 6.57704 21.6736C6.45828 21.7506 6.29897 21.7895 6.09911 21.7895C6.02007 21.7895 5.93525 21.7804 5.84463 21.7613C5.754 21.7423 5.66711 21.7208 5.58435 21.6964C5.50159 21.6719 5.42504 21.6455 5.35511 21.6173C5.28518 21.5892 5.23138 21.5615 5.19373 21.5354L4.90531 21.9935C4.98104 22.0501 5.07331 22.101 5.18256 22.1461C5.2918 22.1912 5.406 22.2318 5.52476 22.2678C5.64352 22.3038 5.75897 22.3299 5.86987 22.3468C5.98076 22.3638 6.07842 22.3725 6.16118 22.3725C6.32711 22.3725 6.48849 22.3564 6.6449 22.3245C6.80131 22.2926 6.93994 22.2359 7.06076 22.1548C7.18159 22.0737 7.27759 21.9661 7.34918 21.8325ZM10.4779 22.0137C10.5912 21.9066 10.679 21.782 10.741 21.6405C10.8031 21.499 10.8346 21.3529 10.8329 21.2019C10.8329 20.9792 10.7899 20.7972 10.703 20.6561C10.6161 20.515 10.5081 20.3966 10.3777 20.3027C10.2474 20.2088 10.1071 20.1281 9.95607 20.0623C9.80504 19.9965 9.66518 19.9286 9.53731 19.8587C9.40945 19.7888 9.30187 19.7081 9.21497 19.6154C9.12807 19.5227 9.08504 19.401 9.08504 19.2504C9.08504 19.1904 9.09994 19.1271 9.13014 19.0609C9.16035 18.9947 9.20173 18.9355 9.25469 18.8826C9.30766 18.8296 9.36766 18.7857 9.43594 18.7497C9.50421 18.7137 9.57538 18.6926 9.65111 18.6848C9.78683 18.6732 9.89814 18.6711 9.98504 18.679C10.0719 18.6868 10.1415 18.6997 10.1944 18.7187C10.2474 18.7377 10.2875 18.7564 10.3161 18.7754C10.3446 18.7944 10.3699 18.8093 10.3926 18.8205C10.3963 18.8168 10.4075 18.7977 10.4266 18.7638C10.4456 18.7299 10.4683 18.6872 10.4944 18.6364C10.5079 18.61 10.522 18.5828 10.5367 18.5545C10.5505 18.5282 10.5647 18.5009 10.5792 18.4725C10.6095 18.4137 10.6355 18.3599 10.6583 18.3111C10.5486 18.2395 10.4055 18.1874 10.2283 18.1555C10.0512 18.1237 9.8758 18.1075 9.70242 18.1075C9.53276 18.1075 9.37138 18.1336 9.21869 18.1866C9.066 18.2395 8.93194 18.3161 8.8169 18.4158C8.70187 18.5155 8.61042 18.6376 8.54256 18.7808C8.47469 18.9239 8.44076 19.0882 8.44076 19.2728C8.44076 19.4764 8.4838 19.646 8.57069 19.7817C8.65759 19.9175 8.76683 20.0354 8.89883 20.1351C9.03083 20.2348 9.17194 20.3217 9.32297 20.3954C9.474 20.469 9.61469 20.5423 9.74463 20.6159C9.87456 20.6896 9.98297 20.7715 10.0699 20.8621C10.1568 20.9528 10.1998 21.062 10.1998 21.1903C10.1998 21.4013 10.1386 21.5606 10.0161 21.6682C9.89359 21.7758 9.71731 21.8296 9.48725 21.8296C9.41152 21.8296 9.33083 21.8221 9.24394 21.8068C9.15704 21.7915 9.07056 21.7717 8.98366 21.7472C8.89676 21.7228 8.81318 21.6964 8.73207 21.6682C8.65097 21.6401 8.58435 21.6107 8.53138 21.5805L8.41262 22.0671C8.47718 22.1238 8.55332 22.1718 8.64187 22.2115C8.73042 22.2512 8.82394 22.2823 8.922 22.305C9.02007 22.3274 9.1169 22.3439 9.21332 22.353C9.30973 22.3621 9.40283 22.3671 9.49345 22.3671C9.7049 22.3671 9.89276 22.3352 10.0591 22.2711C10.2255 22.207 10.3645 22.1209 10.4779 22.0137ZM14.4296 21.8354C14.586 21.6583 14.7089 21.4357 14.7975 21.1679C14.886 20.9002 14.9303 20.5907 14.9303 20.2402C14.9303 19.8897 14.886 19.581 14.7975 19.3154C14.7089 19.0497 14.586 18.8284 14.4296 18.6508C14.2732 18.4733 14.0903 18.3388 13.8809 18.2461C13.6715 18.1535 13.4423 18.1075 13.1936 18.1075C12.9449 18.1075 12.7157 18.1535 12.5063 18.2461C12.2969 18.3388 12.114 18.4737 11.9576 18.6508C11.8012 18.8279 11.6783 19.0497 11.5897 19.3154C11.5012 19.581 11.4569 19.8897 11.4569 20.2402C11.4569 20.5907 11.5012 20.9002 11.5897 21.1679C11.6783 21.4357 11.8012 21.6579 11.9576 21.8354C12.114 22.0129 12.2969 22.1466 12.5063 22.2372C12.7157 22.3278 12.9449 22.3729 13.1936 22.3729C13.4423 22.3729 13.6715 22.3278 13.8809 22.2372C14.0903 22.1466 14.2732 22.0125 14.4296 21.8354ZM18.2117 22.3448H18.9019V18.1754H18.2117V21.0492L16.5768 18.1754H15.8866V22.3448H16.5768V19.471L18.2117 22.3448Z" fill="currentColor"/>
</svg>
