<svg width="24" height="24" viewBox="0 0 24 24" fill="none" xmlns="http://www.w3.org/2000/svg">
<path d="M17.6776 12.554C16.6369 12.554 15.6197 12.8625 14.7544 13.4407C13.8891 14.0188 13.2148 14.8406 12.8165 15.802C12.4183 16.7634 12.3141 17.8213 12.5171 18.842C12.7201 19.8626 13.2212 20.8001 13.9571 21.536C14.6929 22.2718 15.6304 22.7729 16.6511 22.9759C17.6717 23.1789 18.7296 23.0748 19.6911 22.6765C20.6525 22.2783 21.4742 21.6039 22.0524 20.7386C22.6305 19.8734 22.9391 18.8561 22.9391 17.8155C22.9318 16.4223 22.3751 15.0882 21.39 14.1031C20.4048 13.1179 19.0708 12.5612 17.6776 12.554ZM18.6006 18.277C18.4575 18.2735 18.3164 18.2422 18.1852 18.1847L16.2006 20.1693C16.0893 20.2795 15.9416 20.3452 15.7852 20.354C15.706 20.3616 15.626 20.3487 15.5533 20.3163C15.4805 20.284 15.4173 20.2333 15.3699 20.1693C15.2586 20.0505 15.1966 19.8937 15.1966 19.7309C15.1966 19.568 15.2586 19.4113 15.3699 19.2924L17.3545 17.3078C17.3019 17.1751 17.2708 17.0349 17.2622 16.8924C17.2411 16.6724 17.2659 16.4503 17.3348 16.2403C17.4038 16.0302 17.5155 15.8368 17.6629 15.672C17.8103 15.5073 17.9902 15.3748 18.1913 15.283C18.3924 15.1912 18.6104 15.142 18.8314 15.1386C18.9745 15.1421 19.1156 15.1734 19.2468 15.2309C19.3391 15.2309 19.3391 15.3232 19.2929 15.3693L18.3699 16.2463C18.3485 16.257 18.3306 16.2735 18.318 16.2939C18.3055 16.3143 18.2988 16.3377 18.2988 16.3616C18.2988 16.3856 18.3055 16.409 18.318 16.4294C18.3306 16.4498 18.3485 16.4663 18.3699 16.477L18.9699 17.077C18.9863 17.0981 19.0073 17.1152 19.0313 17.1269C19.0553 17.1387 19.0816 17.1448 19.1083 17.1448C19.135 17.1448 19.1614 17.1387 19.1854 17.1269C19.2094 17.1152 19.2304 17.0981 19.2468 17.077L20.1237 16.2001C20.1699 16.154 20.3083 16.154 20.3083 16.2463C20.3562 16.3803 20.3873 16.5199 20.4006 16.6616C20.3972 16.8887 20.3468 17.1126 20.2526 17.3193C20.1585 17.526 20.0227 17.711 19.8536 17.8627C19.6846 18.0144 19.4861 18.1295 19.2704 18.2008C19.0548 18.2721 18.8268 18.2981 18.6006 18.277Z" fill="currentColor"/>
<path d="M10.0144 12.8308C13.3026 12.8308 15.9682 10.1652 15.9682 6.87694C15.9682 3.58872 13.3026 0.923096 10.0144 0.923096C6.72618 0.923096 4.06055 3.58872 4.06055 6.87694C4.06055 10.1652 6.72618 12.8308 10.0144 12.8308Z" fill="currentColor"/>
<path d="M11.6305 22.9846C12.6459 22.9846 12.092 22.2923 12.092 22.2923C11.073 21.023 10.5192 19.4431 10.5228 17.8153C10.5179 16.7951 10.7386 15.7865 11.169 14.8615C11.1883 14.8087 11.22 14.7612 11.2613 14.723C11.5843 14.0769 10.9382 14.0307 10.9382 14.0307C10.6475 13.9923 10.3543 13.9769 10.0613 13.9846C7.88828 13.993 5.79026 14.7799 4.14759 16.2024C2.50492 17.6249 1.42635 19.5889 1.10742 21.7384C1.10742 22.2 1.24588 23.0307 2.67665 23.0307H11.492C11.5843 22.9846 11.5843 22.9846 11.6305 22.9846Z" fill="currentColor"/>
</svg>
