<svg width="25" height="24" viewBox="0 0 25 24" fill="none" xmlns="http://www.w3.org/2000/svg">
<g clip-path="url(#clip0_1524_7337)">
<path d="M4.12779 0C2.23672 0 0.699219 1.5375 0.699219 3.42857V20.5714C0.699219 22.4625 2.23672 24 4.12779 24H21.2706C23.1617 24 24.6992 22.4625 24.6992 20.5714V7.56964C24.6992 6.65893 24.3403 5.78571 23.6974 5.14286L19.5564 1.00179C18.9135 0.358929 18.0403 0 17.1296 0H4.12779ZM4.12779 5.14286C4.12779 4.19464 4.89386 3.42857 5.84208 3.42857H16.1278C17.076 3.42857 17.8421 4.19464 17.8421 5.14286V8.57143C17.8421 9.51964 17.076 10.2857 16.1278 10.2857H5.84208C4.89386 10.2857 4.12779 9.51964 4.12779 8.57143V5.14286ZM12.6992 13.7143C13.6085 13.7143 14.4806 14.0755 15.1236 14.7185C15.7666 15.3615 16.1278 16.2335 16.1278 17.1429C16.1278 18.0522 15.7666 18.9242 15.1236 19.5672C14.4806 20.2102 13.6085 20.5714 12.6992 20.5714C11.7899 20.5714 10.9178 20.2102 10.2749 19.5672C9.63187 18.9242 9.27065 18.0522 9.27065 17.1429C9.27065 16.2335 9.63187 15.3615 10.2749 14.7185C10.9178 14.0755 11.7899 13.7143 12.6992 13.7143Z" fill="currentColor"/>
</g>
<defs>
<clipPath id="clip0_1524_7337">
<rect width="24" height="24" fill="white" transform="translate(0.699219)"/>
</clipPath>
</defs>
</svg>
