<svg width="40" height="40" viewBox="0 0 40 40" fill="none" xmlns="http://www.w3.org/2000/svg">
<path d="M1.875 0C0.839462 0 0 0.839467 0 1.875V24.375C0 25.4105 0.839462 26.25 1.875 26.25H4.375V22.8125H3.125V2.8125H30.625V3.75H33.75V1.875C33.75 0.839467 32.9105 0 31.875 0H1.875Z" fill="currentColor"/>
<path d="M16.5625 15.3125C18.1158 15.3125 19.375 14.0533 19.375 12.5C19.375 10.9467 18.1158 9.6875 16.5625 9.6875C15.0092 9.6875 13.75 10.9467 13.75 12.5C13.75 14.0533 15.0092 15.3125 16.5625 15.3125Z" fill="currentColor"/>
<path d="M19.1543 27.5H10.625L16.4062 17.3437C18.7192 25.7614 19.6875 24.2187 22.8125 17.3437C25.6004 11.2104 26.0255 12.041 27.9707 15.8417C28.206 16.3013 28.4634 16.8043 28.75 17.3437C28.9878 17.7914 29.2058 18.1866 29.4076 18.5326C24.4436 19.1543 20.4077 22.7615 19.1543 27.5Z" fill="currentColor"/>
<path d="M36.875 19.9791V8.4375H9.375V28.4375H18.9458C18.8172 29.1472 18.75 29.8782 18.75 30.625C18.75 31.047 18.7715 31.464 18.8133 31.875H8.125C7.08946 31.875 6.25 31.0355 6.25 30V7.5C6.25 6.46447 7.08946 5.625 8.125 5.625H38.125C39.1605 5.625 40 6.46447 40 7.5V22.4758C39.1058 21.482 38.0504 20.6361 36.875 19.9791Z" fill="currentColor"/>
<path d="M34.5312 18.976C34.1694 18.8645 33.8003 18.7694 33.4249 18.6915C33.437 18.6766 33.449 18.6616 33.4612 18.6465L33.4615 18.646L33.4618 18.6456C33.7753 18.2556 34.1273 17.8176 34.5312 17.3437V18.976Z" fill="currentColor"/>
<path fill-rule="evenodd" clip-rule="evenodd" d="M30.9375 39.6875C35.9426 39.6875 40 35.6301 40 30.625C40 25.6199 35.9426 21.5625 30.9375 21.5625C25.9324 21.5625 21.875 25.6199 21.875 30.625C21.875 35.6301 25.9324 39.6875 30.9375 39.6875ZM29.0625 26.25C29.0625 25.3871 29.7621 24.6875 30.625 24.6875H31.25C32.1129 24.6875 32.8125 25.3871 32.8125 26.25V28.75H35.3125C36.1754 28.75 36.875 29.4496 36.875 30.3125V30.9375C36.875 31.8004 36.1754 32.5 35.3125 32.5H32.8125V35C32.8125 35.8629 32.1129 36.5625 31.25 36.5625H30.625C29.7621 36.5625 29.0625 35.8629 29.0625 35V32.5H26.5625C25.6996 32.5 25 31.8004 25 30.9375V30.3125C25 29.4496 25.6996 28.75 26.5625 28.75H29.0625V26.25Z" fill="currentColor"/>
</svg>
