<svg width="24" height="24" viewBox="0 0 24 24" fill="none" xmlns="http://www.w3.org/2000/svg">
<path d="M22.4516 5.45845V3.71071L18.7409 0H7.74194V5.41935H1.93548C0.868258 5.41935 0 6.28761 0 7.35484V19.7419C0 20.8092 0.868258 21.6774 1.93548 21.6774H6.58064V23.2258H5.03226V24H18.9677V23.2258H17.4194V21.6774H22.0645C23.1317 21.6774 24 20.8092 24 19.7419V7.35484C24 6.42039 23.3338 5.63845 22.4516 5.45845ZM18.5806 0.934452L21.5172 3.87097H18.5806V0.934452ZM8.51613 0.774194H17.8065V4.64516H21.6774V17.0323H8.51613V0.774194ZM16.6452 23.2258H7.35484V21.6774H16.6452V23.2258ZM23.2258 19.7419C23.2258 20.3822 22.7048 20.9032 22.0645 20.9032H1.93548C1.29523 20.9032 0.774194 20.3822 0.774194 19.7419V19.3548H23.2258V19.7419ZM23.2258 18.5806H0.774194V7.35484C0.774194 6.71458 1.29523 6.19355 1.93548 6.19355H7.74194V17.8065H22.4516V6.26477C22.901 6.42503 23.2258 6.85084 23.2258 7.35484V18.5806Z" fill="currentColor"/>
<path d="M6.96818 9.67739C6.96818 8.18358 5.75231 6.96771 4.25851 6.96771C2.7647 6.96771 1.54883 8.18358 1.54883 9.67739C1.54883 11.1712 2.7647 12.3871 4.25851 12.3871C5.75231 12.3871 6.96818 11.1712 6.96818 9.67739ZM4.6456 8.9032C4.6456 9.11687 4.47218 9.29029 4.25851 9.29029C4.04483 9.29029 3.87141 9.11687 3.87141 8.9032C3.87141 8.68952 4.04483 8.5161 4.25851 8.5161C4.47218 8.5161 4.6456 8.68952 4.6456 8.9032ZM4.25851 11.6129C3.98947 11.6129 3.73322 11.5571 3.50018 11.4573C3.57218 11.105 3.88496 10.8387 4.25851 10.8387C4.63205 10.8387 4.94483 11.105 5.01683 11.4573C4.7838 11.5571 4.52754 11.6129 4.25851 11.6129ZM4.25851 10.0645C3.62676 10.0645 3.08444 10.4454 2.84405 10.9889C2.52354 10.6432 2.32302 10.1845 2.32302 9.67739C2.32302 8.69029 3.06857 7.88242 4.0247 7.76552C3.49592 7.87391 3.09722 8.34307 3.09722 8.9032C3.09722 9.54345 3.61825 10.0645 4.25851 10.0645C4.89876 10.0645 5.4198 9.54345 5.4198 8.9032C5.4198 8.34307 5.02109 7.87391 4.49231 7.76552C5.44844 7.88242 6.19399 8.69029 6.19399 9.67739C6.19399 10.1845 5.99347 10.6432 5.67296 10.9889C5.43257 10.4454 4.89025 10.0645 4.25851 10.0645Z" fill="currentColor"/>
<path d="M1.54883 15.0968C1.54883 16.5906 2.7647 17.8064 4.25851 17.8064C5.75231 17.8064 6.96818 16.5906 6.96818 15.0968C6.96818 13.603 5.75231 12.3871 4.25851 12.3871C2.7647 12.3871 1.54883 13.603 1.54883 15.0968ZM4.25851 17.0322C3.98947 17.0322 3.73322 16.9765 3.50018 16.8766C3.57218 16.5244 3.88496 16.2581 4.25851 16.2581C4.63205 16.2581 4.94483 16.5244 5.01683 16.8766C4.7838 16.9765 4.52754 17.0322 4.25851 17.0322ZM4.6456 14.3226C4.6456 14.5362 4.47218 14.7097 4.25851 14.7097C4.04483 14.7097 3.87141 14.5362 3.87141 14.3226C3.87141 14.1089 4.04483 13.9355 4.25851 13.9355C4.47218 13.9355 4.6456 14.1089 4.6456 14.3226ZM4.0247 13.1849C3.49592 13.2933 3.09722 13.7624 3.09722 14.3226C3.09722 14.9628 3.61825 15.4839 4.25851 15.4839C4.89876 15.4839 5.4198 14.9628 5.4198 14.3226C5.4198 13.7624 5.02109 13.2933 4.49231 13.1849C5.44844 13.3018 6.19399 14.1097 6.19399 15.0968C6.19399 15.6039 5.99347 16.0626 5.67296 16.4082C5.43257 15.8648 4.89025 15.4839 4.25851 15.4839C3.62676 15.4839 3.08444 15.8648 2.84405 16.4082C2.52354 16.0626 2.32302 15.6039 2.32302 15.0968C2.32302 14.1097 3.06857 13.3018 4.0247 13.1849Z" fill="currentColor"/>
<path d="M13.9354 3.06347V2.32257H10.0645V6.19354H13.9354V4.01457L15.3216 3.02438L14.8718 2.39457L13.9354 3.06347ZM13.1612 3.61664L12.4288 4.1396L11.8865 3.59728L11.3392 4.14464L12.3452 5.1507L13.1612 4.56773V5.41934H10.8386V3.09676H13.1612V3.61664Z" fill="currentColor"/>
<path d="M13.9354 7.70862V6.96771H10.0645V10.8387H13.9354V8.65971L15.3216 7.66952L14.8718 7.03971L13.9354 7.70862ZM13.1612 8.26178L12.4288 8.78474L11.8865 8.24242L11.3392 8.78978L12.3452 9.79584L13.1612 9.21287V10.0645H10.8386V7.74191H13.1612V8.26178Z" fill="currentColor"/>
<path d="M13.9354 12.3538V11.6129H10.0645V15.4839H13.9354V13.3049L15.3216 12.3147L14.8718 11.6853L13.9354 12.3538ZM13.1612 12.907L12.4288 13.4299L11.8865 12.8876L11.3392 13.435L12.3452 14.441L13.1612 13.8581V14.7097H10.8386V12.3871H13.1612V12.907Z" fill="currentColor"/>
<path d="M20.1286 5.41937H15.4834V6.19357H20.1286V5.41937Z" fill="currentColor"/>
<path d="M20.1286 10.0645H15.4834V10.8387H20.1286V10.0645Z" fill="currentColor"/>
<path d="M20.1286 14.7097H15.4834V15.4838H20.1286V14.7097Z" fill="currentColor"/>
<path d="M20.1286 13.1613H15.4834V13.9355H20.1286V13.1613Z" fill="currentColor"/>
<path d="M20.1286 8.51611H15.4834V9.29031H20.1286V8.51611Z" fill="currentColor"/>
<path d="M17.0318 3.87097H15.4834V4.64517H17.0318V3.87097Z" fill="currentColor"/>
</svg>
