<svg width="24" height="24" viewBox="0 0 24 24" fill="none" xmlns="http://www.w3.org/2000/svg">
<g clip-path="url(#clip0_1310_27486)">
<path d="M10.8 1.2C10.8 0.88174 10.6736 0.576515 10.4485 0.351472C10.2235 0.126428 9.91826 0 9.6 0H1.2C0.88174 0 0.576515 0.126428 0.351472 0.351472C0.126428 0.576515 0 0.88174 0 1.2V24H10.8V1.2ZM8.4 19.2H2.4V16.8H8.4V19.2ZM8.4 14.4H2.4V12H8.4V14.4ZM8.4 9.6H2.4V7.2H8.4V9.6ZM8.4 4.8H2.4V2.4H8.4V4.8ZM22.8 7.2H14.4C14.0817 7.2 13.7765 7.32643 13.5515 7.55147C13.3264 7.77652 13.2 8.08174 13.2 8.4V24H24V8.4C24 8.08174 23.8736 7.77652 23.6485 7.55147C23.4235 7.32643 23.1183 7.2 22.8 7.2ZM18 21.6H15.6V19.2H18V21.6ZM18 16.8H15.6V14.4H18V16.8ZM18 12H15.6V9.6H18V12ZM21.6 21.6H19.2V19.2H21.6V21.6ZM21.6 16.8H19.2V14.4H21.6V16.8ZM21.6 12H19.2V9.6H21.6V12Z" fill="currentColor"/>
</g>
<defs>
<clipPath id="clip0_1310_27486">
<rect width="24" height="24" fill="currentColor"/>
</clipPath>
</defs>
</svg>
