<svg width="24" height="24" viewBox="0 0 24 24" fill="none" xmlns="http://www.w3.org/2000/svg">
<path d="M6.85714 0C7.80536 0 8.57143 0.670312 8.57143 1.5V3H15.4286V1.5C15.4286 0.670312 16.1946 0 17.1429 0C18.0911 0 18.8571 0.670312 18.8571 1.5V3H21.4286C22.8482 3 24 4.00781 24 5.25V7.5H0V5.25C0 4.00781 1.15179 3 2.57143 3H5.14286V1.5C5.14286 0.670312 5.90893 0 6.85714 0ZM0 9H24V21.75C24 22.9922 22.8482 24 21.4286 24H2.57143C1.15179 24 0 22.9922 0 21.75V9ZM3.42857 12.75V14.25C3.42857 14.6625 3.81429 15 4.28571 15H6C6.47143 15 6.85714 14.6625 6.85714 14.25V12.75C6.85714 12.3375 6.47143 12 6 12H4.28571C3.81429 12 3.42857 12.3375 3.42857 12.75ZM10.2857 12.75V14.25C10.2857 14.6625 10.6714 15 11.1429 15H12.8571C13.3286 15 13.7143 14.6625 13.7143 14.25V12.75C13.7143 12.3375 13.3286 12 12.8571 12H11.1429C10.6714 12 10.2857 12.3375 10.2857 12.75ZM18 12C17.5286 12 17.1429 12.3375 17.1429 12.75V14.25C17.1429 14.6625 17.5286 15 18 15H19.7143C20.1857 15 20.5714 14.6625 20.5714 14.25V12.75C20.5714 12.3375 20.1857 12 19.7143 12H18ZM3.42857 18.75V20.25C3.42857 20.6625 3.81429 21 4.28571 21H6C6.47143 21 6.85714 20.6625 6.85714 20.25V18.75C6.85714 18.3375 6.47143 18 6 18H4.28571C3.81429 18 3.42857 18.3375 3.42857 18.75ZM11.1429 18C10.6714 18 10.2857 18.3375 10.2857 18.75V20.25C10.2857 20.6625 10.6714 21 11.1429 21H12.8571C13.3286 21 13.7143 20.6625 13.7143 20.25V18.75C13.7143 18.3375 13.3286 18 12.8571 18H11.1429ZM17.1429 18.75V20.25C17.1429 20.6625 17.5286 21 18 21H19.7143C20.1857 21 20.5714 20.6625 20.5714 20.25V18.75C20.5714 18.3375 20.1857 18 19.7143 18H18C17.5286 18 17.1429 18.3375 17.1429 18.75Z" fill="currentColor"/>
</svg>
