<svg width="24" height="24" viewBox="0 0 24 24" fill="none" xmlns="http://www.w3.org/2000/svg">
<path d="M16.8652 5.57935H20.1075V7.22935H16.8652V5.57935Z" fill="currentColor"/>
<path d="M16.8652 8.20508H20.1075V9.85508H16.8652V8.20508Z" fill="currentColor"/>
<path d="M20.1075 10.8309H16.8652V12.4809H20.1075V10.8309Z" fill="currentColor"/>
<path d="M16.8652 13.4567H20.1075V15.1067H16.8652V13.4567Z" fill="currentColor"/>
<path d="M20.1075 16.0824H16.8652V17.7324H20.1075V16.0824Z" fill="currentColor"/>
<path fill-rule="evenodd" clip-rule="evenodd" d="M21.5858 3.30392H13.9882V1.51367L1.5 3.44117V20.3364L13.9882 22.4874V19.8339H21.5858C21.8158 19.8456 22.0412 19.7656 22.2125 19.6116C22.3839 19.4576 22.4872 19.242 22.5 19.0119V4.12517C22.487 3.89527 22.3836 3.67985 22.2123 3.52597C22.041 3.37209 21.8157 3.29226 21.5858 3.30392ZM21.7057 19.1484H13.9628L13.95 17.7317H15.8153V16.0817H13.9357L13.9268 15.1067H15.8153V13.4567H13.9125L13.9035 12.4817H15.8153V10.8317H13.8975V9.85667H15.8153V8.20667H13.8975V7.23167H15.8153V5.58167H13.8975V4.08167H21.7057V19.1484ZM4.76007 8.00482L6.36957 7.91257L7.38132 10.6943L8.57682 7.79782L10.1863 7.70557L8.23182 11.6551L10.1863 15.6143L8.48457 15.4996L7.33557 12.4816L6.18582 15.3848L4.62207 15.2468L6.43857 11.7496L4.76007 8.00482Z" fill="currentColor"/>
</svg>
