<svg width="24" height="24" viewBox="0 0 24 24" fill="none" xmlns="http://www.w3.org/2000/svg">
<path d="M8.53487 3.02973C5.44116 4.34223 4.43099 6.84903 4.50362 10.061C5.20154 16.09 4.50357 20.6547 4.87857 21.4047C5.25357 22.1547 7.87862 21.4047 7.87862 21.4047C8.93918 21.0473 9.75357 18.9619 9.28487 18.311C7.59732 15.9672 6.73406 14.9722 6.65987 10.811C8.48563 9.78715 9.15977 9.0614 10.0349 7.62348C11.3369 8.77432 12.2144 9.15391 13.9724 9.40473C15.2277 9.4577 16.5037 9.77972 16.8786 10.811C17.2536 11.8422 16.7293 15.7804 15.0036 17.7485C14.9844 19.649 15.5662 21.1235 15.9411 21.4047C16.3161 21.686 19.3161 22.2485 19.3161 21.1235C19.3161 19.9985 18.8514 14.5742 19.5974 9.40473C19.4998 6.35134 17.7223 3.87348 15.9411 3.02973C14.1599 2.18597 10.8786 1.81098 8.53487 3.02973Z" fill="currentColor"/>
<path d="M16.5 0.375C16.5 0.167893 16.6679 0 16.875 0H23.625C23.8321 0 24 0.167893 24 0.375V7.125C24 7.33211 23.8321 7.5 23.625 7.5H23.25C23.0429 7.5 22.875 7.33211 22.875 7.125V1.125H16.875C16.6679 1.125 16.5 0.957107 16.5 0.75V0.375Z" fill="currentColor"/>
<path d="M0 16.6875C0 16.4804 0.167891 16.3125 0.375 16.3125H0.75C0.957109 16.3125 1.125 16.4804 1.125 16.6875V22.6875H7.125C7.33211 22.6875 7.5 22.8554 7.5 23.0625V23.4375C7.5 23.6446 7.33211 23.8125 7.125 23.8125H0.375C0.167891 23.8125 0 23.6446 0 23.4375V16.6875Z" fill="currentColor"/>
<path d="M23.25 16.3125C23.0429 16.3125 22.875 16.4804 22.875 16.6875V22.875H16.875C16.6679 22.875 16.5 23.0429 16.5 23.25V23.625C16.5 23.8321 16.6679 24 16.875 24H23.625C23.8321 24 24 23.8321 24 23.625V16.6875C24 16.4804 23.8321 16.3125 23.625 16.3125H23.25Z" fill="currentColor"/>
<path d="M0 0.375C0 0.167893 0.167891 0 0.375 0H7.125C7.33211 0 7.5 0.167893 7.5 0.375V0.75C7.5 0.957107 7.33211 1.125 7.125 1.125H1.125V7.125C1.125 7.33211 0.957109 7.5 0.75 7.5H0.375C0.167891 7.5 0 7.33211 0 7.125V0.375Z" fill="currentColor"/>
</svg>
