<svg width="20" height="24" viewBox="0 0 20 24" fill="none" xmlns="http://www.w3.org/2000/svg">
<path d="M16.6667 21.75C17.125 21.75 17.5 21.4125 17.5 21V7.5H13.3333C12.4115 7.5 11.6667 6.82969 11.6667 6V2.25H3.33333C2.875 2.25 2.5 2.5875 2.5 3V21C2.5 21.4125 2.875 21.75 3.33333 21.75H16.6667ZM0 3C0 1.34531 1.49479 0 3.33333 0H11.9531C12.8385 0 13.6875 0.314063 14.3125 0.876563L19.026 5.11875C19.651 5.68125 20 6.44531 20 7.24219V21C20 22.6547 18.5052 24 16.6667 24H3.33333C1.49479 24 0 22.6547 0 21V3Z" fill="currentColor"/>
</svg>
