<svg width="24" height="24" viewBox="0 0 24 24" fill="none" xmlns="http://www.w3.org/2000/svg">
<g clip-path="url(#clip0_2628_61166)">
<path fill-rule="evenodd" clip-rule="evenodd" d="M17.3461 16.4393L22.1874 22.6673H1.80345L6.64611 16.4393L7.76211 17.334H16.2301L17.3461 16.4393ZM0.662509 11.6531L5.60517 15.6091L0.662509 21.9624V11.6531ZM23.3292 11.6537V21.9617L18.3865 15.6084L23.3292 11.6537ZM19.3301 0V6.22934L23.3288 9.696V9.94534L17.9954 14.2133V1.33334H5.99545V14.2133L0.662109 9.94534V9.696L4.66211 6.22934V0H19.3301ZM12.6625 3.33347V6.6668H15.9958V8.00014H12.6625V11.3335H11.3292V8.00014H7.99585V6.6668H11.3292V3.33347H12.6625Z" fill="currentColor"/>
</g>
<defs>
<clipPath id="clip0_2628_61166">
<rect width="24" height="24" fill="white"/>
</clipPath>
</defs>
</svg>
