<svg width="24" height="24" viewBox="0 0 24 24" fill="none" xmlns="http://www.w3.org/2000/svg">
<g clip-path="url(#clip0_3783_64685)">
<path d="M10.8835 3.95064C11.9745 3.95064 12.8588 3.06626 12.8588 1.97532C12.8588 0.88438 11.9745 0 10.8835 0C9.79258 0 8.9082 0.88438 8.9082 1.97532C8.9082 3.06626 9.79258 3.95064 10.8835 3.95064Z" fill="currentColor"/>
<path d="M8.41992 23.2511C8.5807 23.6882 9.00075 24 9.49358 24C10.1252 24 10.6373 23.488 10.6373 22.8563V22.5496L8.67302 23.1964C8.59047 23.2234 8.50576 23.241 8.41992 23.2511Z" fill="currentColor"/>
<path d="M6.13207 15.3615C5.7712 15.6628 5.59576 16.1478 5.70778 16.6346C5.7081 16.6357 5.70818 16.6367 5.70858 16.6378L6.51472 20.1001L6.04591 22.1134C5.9648 22.4616 5.60217 22.6654 5.26259 22.5536L2.91855 21.7818C2.57906 21.6701 2.40835 21.2907 2.54999 20.9624L4.83991 15.6559C4.96481 15.3665 5.2899 15.2203 5.58928 15.3189L5.77728 15.3808L5.95784 14.8323L6.13207 15.3615Z" fill="currentColor"/>
<path d="M21.7279 19.1636L17.8958 14.8372C17.6868 14.6013 17.3323 14.5639 17.0787 14.751L16.9194 14.8685L16.5765 14.4038L16.5762 14.9609C17.0131 15.1346 17.3312 15.5406 17.3767 16.038L17.3771 16.0414L17.6921 19.5823L18.7659 21.3486C18.9516 21.6541 19.3599 21.7345 19.6475 21.5223L21.6335 20.0574C21.9211 19.8449 21.9649 19.4311 21.7279 19.1636Z" fill="currentColor"/>
<path d="M16.0979 15.5464C16.4132 15.5466 16.676 15.7873 16.704 16.1013L17.2159 21.8583C17.2476 22.2143 16.9668 22.5209 16.6096 22.5209L14.1414 22.5195C13.8091 22.5193 13.5379 22.2522 13.533 21.9198C13.5327 21.8985 13.5335 21.8773 13.5354 21.856L14.0544 16.0998C14.0826 15.786 14.3457 15.5457 14.6607 15.5457L14.859 15.5457L14.8596 14.4705C14.731 14.3284 14.6432 14.1468 14.6194 13.9419C14.3099 11.2875 14.0712 9.21099 13.9326 8.0043C13.8488 7.27494 13.8015 6.86337 13.7971 6.83408C13.7817 6.73031 13.6365 6.65625 13.532 6.66417C13.4275 6.6721 13.3467 6.7593 13.347 6.86419C13.3631 14.6913 13.4501 15.6244 13.4501 15.6244L12.8616 21.7951C12.8213 22.2424 13.0189 22.6978 13.4133 22.9688C13.3568 23.5477 12.8689 23.9999 12.2752 23.9999C11.6436 23.9999 11.1315 23.4879 11.1315 22.8562V22.3804C11.7822 22.0946 12.0741 21.3395 11.7956 20.6942L11.1315 19.1554V13.7142H10.6376V18.0109L9.50562 15.3877C9.31298 14.9413 8.88749 14.6444 8.40699 14.6141L8.35022 14.4417V13.7142L8.35718 6.83064C8.35582 6.76802 8.3045 6.71806 8.24188 6.71838C8.17935 6.7187 7.97237 6.76914 7.97165 6.83176L7.98854 13.8291C7.98918 14.1121 7.86588 14.3657 7.67059 14.5407L7.94715 15.3806L8.13515 15.3187C8.43445 15.2202 8.75961 15.3663 8.88452 15.6558L11.1744 20.9623C11.317 21.2925 11.1436 21.6706 10.8059 21.7817L8.46183 22.5535C8.1237 22.6648 7.75994 22.4628 7.67851 22.1133L6.36785 16.4843C6.29635 16.1772 6.47106 15.8666 6.77036 15.768L6.95837 15.7061L6.62384 14.6901C6.3046 14.5368 6.08329 14.2117 6.08232 13.8337L6.06543 6.83152V6.82447C6.07159 5.587 7.08352 4.5802 8.32091 4.5802H13.4479C14.6652 4.5802 15.6643 5.55465 15.7023 6.76442L16.5128 13.7212C16.5646 14.1656 16.3014 14.573 15.9005 14.7231L15.9 15.5463L16.0979 15.5464Z" fill="currentColor"/>
</g>
<defs>
<clipPath id="clip0_3783_64685">
<rect width="24" height="24" fill="white"/>
</clipPath>
</defs>
</svg>
