<svg width="60" height="60" viewBox="0 0 60 60" fill="none" xmlns="http://www.w3.org/2000/svg">
<path fill-rule="evenodd" clip-rule="evenodd" d="M17.5759 28.4575V26.8979L11.5696 26.8984V28.458H9.02407C6.71138 28.458 4.74309 27.029 4 25.0382V15.0056H21.4436V10.9544C21.4436 10.4277 21.8858 10 22.431 10H37.6795C38.2247 10 38.6668 10.4277 38.6668 10.9544V15.0056H55.9999V24.2161C55.5474 26.6243 53.3657 28.4575 50.7457 28.4575H46.7848V26.8979H40.7785V28.4575H17.5759ZM36.6923 11.9082H23.4185V15.005H36.6923V11.9082Z" fill="currentColor"/>
<path d="M49.8981 45.7166C50.0079 45.701 50.1075 45.6766 50.1969 45.6432C50.3674 45.5806 50.4982 45.4936 50.5894 45.3822C50.6807 45.2708 50.7275 45.1432 50.7299 44.9993C50.7275 44.8647 50.6843 44.7498 50.6002 44.6547C50.5162 44.5573 50.3866 44.4737 50.2113 44.4041C50.1203 44.3662 50.0158 44.3299 49.8981 44.2952V45.7166Z" fill="currentColor"/>
<path d="M49.3075 42.6347V41.2871C49.2043 41.3016 49.1119 41.3242 49.0303 41.355C48.8766 41.413 48.7614 41.4931 48.6846 41.5952C48.6078 41.695 48.5682 41.8098 48.5658 41.9398C48.561 42.0465 48.5826 42.1405 48.6306 42.2217C48.681 42.3029 48.753 42.3749 48.8466 42.4375C48.9426 42.4978 49.0579 42.5512 49.1923 42.5976C49.2294 42.6104 49.2678 42.6228 49.3075 42.6347Z" fill="currentColor"/>
<path fill-rule="evenodd" clip-rule="evenodd" d="M46.7849 29.73V33.7381H40.7785V29.73H17.5759V33.7381H11.5696V29.73H9.02407C7.01925 29.73 5.22225 28.8652 4 27.5056V50H56V27.2344C54.78 28.7495 52.8812 29.73 50.7458 29.73H46.7849ZM49.3075 47.1535V47.9614H49.8981V47.154C50.3886 47.1307 50.8159 47.0471 51.18 46.9032C51.6169 46.7315 51.9518 46.4844 52.1846 46.1619C52.4175 45.8393 52.5351 45.4529 52.5375 45.0028C52.5351 44.7174 52.4847 44.4598 52.3863 44.2301C52.2878 44.0003 52.1426 43.7973 51.9506 43.6209C51.7609 43.4446 51.5257 43.2926 51.2448 43.165C50.9663 43.0373 50.6447 42.9352 50.2798 42.8587L49.8981 42.7748V41.2874C50.1079 41.3176 50.2783 41.3831 50.4094 41.4838C50.599 41.6253 50.7059 41.8237 50.7299 42.079H52.4367C52.4319 41.6358 52.3131 41.2459 52.0802 40.9095C51.8473 40.573 51.5197 40.312 51.0972 40.1263C50.7493 39.9707 50.3496 39.8795 49.8981 39.8527V39.0508H49.3075V39.8538C48.8695 39.8817 48.4722 39.9714 48.1156 40.1228C47.6787 40.3085 47.3367 40.5672 47.0894 40.899C46.8421 41.2309 46.7197 41.6172 46.7221 42.0581C46.7197 42.5988 46.9022 43.0281 47.2694 43.346C47.6367 43.6616 48.1397 43.8901 48.7782 44.0317L49.3075 44.1512V45.7211C49.1571 45.7027 49.0191 45.6686 48.8934 45.6189C48.6966 45.54 48.5418 45.4239 48.4289 45.2708C48.3161 45.1176 48.2525 44.9262 48.2381 44.6965H46.5313C46.5385 45.2534 46.6693 45.714 46.9238 46.0783C47.1782 46.4426 47.5347 46.7141 47.9932 46.8928C48.3761 47.042 48.8142 47.1289 49.3075 47.1535Z" fill="currentColor"/>
</svg>
