<svg width="24" height="24" viewBox="0 0 24 24" fill="none" xmlns="http://www.w3.org/2000/svg">
<path fill-rule="evenodd" clip-rule="evenodd" d="M11.5352 12.222C11.5352 12.072 11.6724 11.9401 11.881 11.9401H13.1148C13.9016 11.9401 14.5214 12.312 14.5214 13.3197V13.3497C14.5214 14.3575 13.8777 14.7414 13.0552 14.7414H12.4651V16.0371C12.4651 16.2291 12.2326 16.325 12.0001 16.325C11.7676 16.325 11.5352 16.229 11.5352 16.0371L11.5352 12.222ZM12.4651 12.7559V14.0215H13.0552C13.389 14.0215 13.5916 13.8295 13.5916 13.4217V13.3558C13.5916 12.9478 13.389 12.7559 13.0552 12.7559H12.4651Z" fill="currentColor"/>
<path fill-rule="evenodd" clip-rule="evenodd" d="M17.8534 13.3558C17.8534 12.324 17.2097 11.9401 16.3871 11.9401L15.3321 11.9401C15.0877 11.9401 14.9268 12.0721 14.9268 12.2221V16.0432C14.9268 16.1932 15.0877 16.3251 15.3321 16.3251H16.3871C17.2097 16.3251 17.8534 15.9412 17.8534 14.9095V13.3558ZM15.8566 15.5092V12.7559H16.3871C16.7209 12.7559 16.9235 12.9478 16.9235 13.3557V14.9094C16.9235 15.3172 16.7209 15.5092 16.3871 15.5092H15.8566Z" fill="currentColor"/>
<path d="M18.8497 11.9401C18.647 11.9401 18.4444 12.036 18.4444 12.228L18.4443 16.0371C18.4443 16.229 18.6768 16.325 18.9093 16.325C19.1418 16.325 19.3742 16.2291 19.3742 16.0371V14.4895H20.2743C20.471 14.4895 20.5545 14.2976 20.5545 14.1356C20.5545 13.9436 20.4531 13.7697 20.2743 13.7697H19.3742V12.7559H20.9181C21.0969 12.7559 21.1982 12.5639 21.1982 12.342C21.1982 12.15 21.1148 11.9401 20.9181 11.9401H18.8497Z" fill="currentColor"/>
<path fill-rule="evenodd" clip-rule="evenodd" d="M23.0064 9.59222H21.1994V0.693094C21.1994 0.310359 20.8891 0 20.5063 0H8.25377L8.24883 0.000237625L8.24449 0.00046875C8.22766 0.00065625 8.21088 0.0015 8.1941 0.00295313L8.17718 0.00454688C8.15796 0.00670313 8.13893 0.00946875 8.11999 0.0132188L8.11568 0.0139219C8.09543 0.0180937 8.07546 0.0232969 8.05568 0.0291562L8.04593 0.0322637L8.04021 0.034125C8.02512 0.0390469 8.01012 0.0444375 7.9953 0.0503906L7.99023 0.0524323L7.98012 0.0565781C7.94229 0.0727969 7.90582 0.0924844 7.87109 0.1155L7.86275 0.121225L7.85702 0.125203C7.84418 0.134156 7.83166 0.143578 7.81938 0.153469L7.81573 0.156398C7.81232 0.159131 7.80892 0.161848 7.8056 0.164719C7.78971 0.178172 7.7742 0.192188 7.75943 0.207188L0.500648 7.5907C0.48443 7.6072 0.469195 7.62441 0.454852 7.64227C0.448439 7.65023 0.442607 7.65849 0.436783 7.66673L0.430992 7.67489L0.424924 7.68314C0.42154 7.68768 0.418152 7.69222 0.415055 7.69692C0.406133 7.71044 0.397842 7.72527 0.390023 7.73925L0.386157 7.74587C0.384385 7.74883 0.382611 7.75179 0.381023 7.75486C0.373242 7.76962 0.366586 7.78481 0.359977 7.8L0.356875 7.80672C0.355429 7.80977 0.353984 7.81282 0.352711 7.81594C0.346805 7.83056 0.341883 7.84538 0.336961 7.86028L0.334372 7.86775C0.332973 7.8717 0.331579 7.87564 0.330398 7.87964C0.326765 7.89192 0.32395 7.90431 0.321124 7.91675L0.320086 7.92131L0.318026 7.92977C0.316736 7.93496 0.315447 7.94014 0.314414 7.94545C0.312466 7.95552 0.311152 7.96565 0.309839 7.97577L0.308742 7.98413L0.307367 7.99368C0.306449 7.99987 0.305534 8.00603 0.304945 8.01225C0.304009 8.02228 0.303671 8.03229 0.303335 8.04226L0.30307 8.0498L0.302465 8.06053C0.302111 8.06587 0.301758 8.0712 0.301758 8.07656V8.30119C0.301758 8.68392 0.61207 8.99428 0.994852 8.99428H8.25368C8.63646 8.99428 8.94677 8.68392 8.94677 8.30119V1.38619H19.8131V9.59222H9.21237C8.82959 9.59222 8.51927 9.90258 8.51927 10.2853V17.959C8.51927 18.3417 8.82959 18.6521 9.21237 18.6521H23.0064C23.3891 18.6521 23.6995 18.3417 23.6995 17.959V10.2854C23.6995 9.90263 23.3892 9.59222 23.0064 9.59222ZM7.56063 7.60819H2.4274L7.56063 2.38678V7.60819ZM22.3133 17.2659H9.90551V10.9785H22.3133V17.2659Z" fill="currentColor"/>
<path d="M0.993875 24.0001H20.5053C20.8881 24.0001 21.1984 23.6897 21.1984 23.3069V21.0698C21.1984 20.6871 20.888 20.3767 20.5053 20.3767C20.1225 20.3767 19.8122 20.6871 19.8122 21.0698V22.6138H1.68697V12.0429C1.68697 11.6602 1.37666 11.3499 0.993875 11.3499C0.611094 11.3499 0.300781 11.6602 0.300781 12.0429V23.307C0.300781 23.6897 0.611094 24.0001 0.993875 24.0001Z" fill="currentColor"/>
</svg>
