<svg width="24" height="24" viewBox="0 0 24 24" fill="none" xmlns="http://www.w3.org/2000/svg">
<path d="M14.5981 0.640015L21.4019 4.25145C23.0096 5.1048 24 6.68186 24 8.38857V15.6114C24 17.3181 23.0096 18.8952 21.4019 19.7486L14.5981 23.36C12.9904 24.2133 11.0096 24.2133 9.40192 23.36L2.59808 19.7486C0.990381 18.8952 0 17.3181 0 15.6114V8.38857C0 6.68186 0.990381 5.1048 2.59808 4.25145L9.40192 0.640015C11.0096 -0.213338 12.9904 -0.213338 14.5981 0.640015ZM10.4488 1.92951L10.2679 2.01905L3.4641 5.63049C2.44871 6.16945 1.80269 7.14143 1.7375 8.20969L1.73205 8.38857V15.6114C1.73205 16.6894 2.32463 17.6897 3.29833 18.2757L3.4641 18.3695L10.2679 21.9809C11.2802 22.5182 12.5143 22.5481 13.5512 22.0705L13.732 21.9809L20.5359 18.3695C21.5513 17.8306 22.1973 16.8586 22.2625 15.7903L22.2679 15.6114V8.38857C22.2679 7.31065 21.6754 6.3103 20.7017 5.72427L20.5359 5.63049L13.732 2.01905C12.7198 1.48176 11.4857 1.45191 10.4488 1.92951ZM18.0798 8.46283C18.3043 8.85109 18.144 9.33318 17.7217 9.53961L12.8561 11.9177L12.8561 17.3071C12.8561 17.7468 12.4684 18.1032 11.9901 18.1032C11.5118 18.1032 11.124 17.7468 11.124 17.3071L11.124 11.9177L6.25843 9.53961C5.83613 9.33318 5.67581 8.85109 5.90035 8.46283C6.1249 8.07458 6.64928 7.92719 7.07158 8.13363L11.99 10.5371L16.9085 8.13363C17.3309 7.92719 17.8552 8.07458 18.0798 8.46283Z" fill="currentColor"/>
</svg>
