<svg width="24" height="24" viewBox="0 0 24 24" fill="none" xmlns="http://www.w3.org/2000/svg">
<path d="M15.6784 7.60813C15.8754 7.41116 16.1948 7.41116 16.3917 7.60813C16.5887 7.80509 16.5887 8.12449 16.3917 8.32142L8.32143 16.3918C8.22295 16.4903 8.09385 16.5395 7.96477 16.5395C7.83573 16.5395 7.70658 16.4903 7.60805 16.3918C7.41109 16.1948 7.41109 15.8754 7.60805 15.6784L15.6784 7.60813Z" fill="currentColor"/>
<path fill-rule="evenodd" clip-rule="evenodd" d="M14.69 12.8406C15.7098 12.8406 16.5395 13.6702 16.5395 14.69C16.5395 15.7099 15.7098 16.5395 14.69 16.5395C13.6703 16.5395 12.8406 15.7098 12.8406 14.69C12.8406 13.6702 13.6703 12.8406 14.69 12.8406ZM14.69 13.8494C14.2265 13.8494 13.8494 14.2265 13.8494 14.69C13.8494 15.1536 14.2265 15.5307 14.69 15.5307C15.1536 15.5307 15.5307 15.1536 15.5307 14.69C15.5307 14.2265 15.1536 13.8494 14.69 13.8494Z" fill="currentColor"/>
<path fill-rule="evenodd" clip-rule="evenodd" d="M9.30982 7.46038C10.3296 7.46038 11.1593 8.29002 11.1593 9.30983C11.1593 10.3296 10.3296 11.1593 9.30982 11.1593C8.29006 11.1593 7.46036 10.3296 7.46036 9.30983C7.46036 8.29003 8.29006 7.46039 9.30982 7.46038ZM9.30982 8.46919C8.84623 8.4692 8.46917 8.84629 8.46917 9.30983C8.46917 9.77337 8.84628 10.1505 9.30982 10.1505C9.77336 10.1505 10.1505 9.77338 10.1505 9.30983C10.1505 8.84629 9.77341 8.46919 9.30982 8.46919Z" fill="currentColor"/>
<path fill-rule="evenodd" clip-rule="evenodd" d="M7.10862 0.19175C8.53597 -0.400091 10.3586 0.567042 11.9999 0.567042C13.4553 0.567041 15.0532 -0.193276 16.3917 0.0469941C16.3924 0.0471327 16.3932 0.0472944 16.394 0.0474336C16.4135 0.0509638 16.4331 0.0546903 16.4525 0.0586543C16.4533 0.0588211 16.4542 0.0589847 16.455 0.0591523C16.4925 0.0668289 16.5297 0.0753198 16.5668 0.0846698C16.5694 0.0853322 16.5721 0.0859911 16.5747 0.086662C16.5822 0.0885856 16.5897 0.0905559 16.5972 0.0925507C16.6002 0.0933348 16.6031 0.0941285 16.6061 0.0949237C16.6135 0.096932 16.6209 0.0989674 16.6284 0.101047C16.6312 0.101834 16.634 0.102622 16.6368 0.10342C16.6442 0.105524 16.6516 0.10763 16.659 0.109807C16.6619 0.110671 16.6649 0.111597 16.6678 0.112473C16.6902 0.119155 16.7124 0.12618 16.7346 0.133537C16.7407 0.135556 16.7468 0.13756 16.7529 0.139631C16.7562 0.140757 16.7595 0.141917 16.7628 0.143058C16.7702 0.145609 16.7776 0.148194 16.7849 0.150822C16.7888 0.152191 16.7926 0.153592 16.7964 0.154982C16.8025 0.157193 16.8086 0.159427 16.8147 0.161691C16.8196 0.163534 16.8246 0.165379 16.8295 0.167258C16.8365 0.169918 16.8435 0.172611 16.8505 0.175344C16.8535 0.176519 16.8565 0.177699 16.8594 0.178888C16.8663 0.181621 16.8732 0.184404 16.8801 0.187209C16.8838 0.18873 16.8875 0.190208 16.8913 0.19175C16.9028 0.196522 16.9142 0.201401 16.9256 0.20634C16.9407 0.212882 16.9557 0.219608 16.9707 0.226437C16.9973 0.238613 17.0236 0.251251 17.0496 0.264318C17.0703 0.274708 17.0908 0.285373 17.1112 0.29631C17.1318 0.307356 17.1521 0.318675 17.1723 0.330265C17.2579 0.379341 17.3404 0.43322 17.4201 0.491368C17.4812 0.535866 17.5406 0.582842 17.5986 0.632081C17.6073 0.639514 17.616 0.647018 17.6247 0.654552C17.6347 0.663238 17.6447 0.671984 17.6546 0.680802C17.7196 0.738574 17.7828 0.799168 17.8444 0.862208C17.8531 0.871099 17.8618 0.880027 17.8704 0.889014C17.8794 0.898378 17.8884 0.907791 17.8973 0.917257C17.9353 0.95758 17.9727 0.998818 18.0096 1.04089C18.0274 1.0613 18.0452 1.08189 18.0628 1.10268C18.0712 1.11252 18.0795 1.1224 18.0878 1.13232C18.2382 1.31227 18.3797 1.50553 18.5166 1.70552C18.5679 1.78045 18.6186 1.85628 18.6688 1.93277C18.7604 2.07251 18.8505 2.21429 18.9404 2.35602C18.9806 2.41927 19.0206 2.4825 19.0608 2.54555C19.1909 2.74989 19.3217 2.9522 19.4571 3.14619C19.4784 3.1767 19.4999 3.20696 19.5214 3.23704C19.5802 3.31911 19.6399 3.39951 19.7009 3.47765C19.7044 3.48212 19.7079 3.48659 19.7114 3.49104C19.7272 3.51118 19.7431 3.53116 19.7591 3.55098C19.7737 3.56908 19.7883 3.58704 19.8031 3.60486C19.8331 3.64113 19.8635 3.67681 19.8942 3.71188C19.9063 3.72575 19.9185 3.73955 19.9308 3.75322C19.9809 3.80913 20.032 3.86334 20.0843 3.91561C20.1801 4.01144 20.2825 4.10345 20.3898 4.19253C20.4094 4.20872 20.4291 4.2248 20.4489 4.24081C20.6507 4.40352 20.8689 4.55672 21.0944 4.70613C21.1019 4.7111 21.1094 4.71613 21.117 4.7211C21.317 4.85313 21.5226 4.9823 21.7274 5.11247C21.8323 5.1791 21.9369 5.24601 22.0405 5.31369C22.126 5.36955 22.2108 5.42599 22.2944 5.48323C22.3575 5.52645 22.42 5.57015 22.4816 5.61445C22.5062 5.63213 22.5306 5.64994 22.5549 5.66783C22.5884 5.69242 22.6215 5.71712 22.6543 5.74212C22.7272 5.79765 22.7984 5.85424 22.8677 5.91213C22.8974 5.93694 22.9267 5.96198 22.9556 5.98728C23.2804 6.27123 23.5559 6.58747 23.7412 6.96137C23.765 7.00949 23.7875 7.05853 23.8082 7.10861C23.8129 7.11977 23.8174 7.13096 23.8218 7.14216C24.385 8.56439 23.433 10.3714 23.433 11.9999C23.433 12.7437 23.6315 13.5246 23.7936 14.2892C23.9893 15.2119 24.1319 16.1107 23.8083 16.8913C23.1948 18.3708 21.1995 18.9692 20.0844 20.0843C18.9693 21.1994 18.371 23.1947 16.8914 23.8082C15.4641 24.4 13.6414 23.433 12 23.433C10.3587 23.433 8.53601 24.4001 7.10871 23.8082C5.62915 23.1947 5.03076 21.1994 3.9157 20.0843C2.80064 18.9692 0.805298 18.3709 0.191747 16.8913C-0.400047 15.464 0.567038 13.6414 0.56704 12C0.567039 10.3586 -0.400087 8.53602 0.191747 7.10873C0.8052 5.62918 2.80052 5.03075 3.91559 3.9157C5.03065 2.80064 5.62902 0.805295 7.10862 0.19175ZM11.9999 3.25696C7.17135 3.25696 3.25703 7.17128 3.25702 11.9998C3.25702 16.7415 7.03166 20.6014 11.74 20.7389C11.744 20.739 11.748 20.7391 11.752 20.7392C11.7648 20.7396 11.7776 20.7399 11.7904 20.7402C11.8033 20.7405 11.8162 20.7408 11.8291 20.741C11.8303 20.7411 11.8315 20.7411 11.8326 20.7411C11.8883 20.7422 11.9441 20.7428 12 20.7428C16.8285 20.7428 20.7429 16.8285 20.7429 11.9999C20.7429 10.7554 20.4828 9.57167 20.0142 8.50001C20.0076 8.48492 20.0009 8.46985 19.9942 8.4548C19.9341 8.31937 19.8706 8.18576 19.8038 8.05405C19.7371 7.92234 19.6671 7.79256 19.594 7.66479C19.5517 7.59074 19.5083 7.51738 19.4638 7.44471C19.3799 7.30752 19.2924 7.17283 19.2012 7.04076C19.1776 7.00657 19.1538 6.97253 19.1298 6.93869C17.5452 4.7105 14.9423 3.25696 11.9999 3.25696Z" fill="currentColor"/>
</svg>
