<svg width="128" height="128" viewBox="0 0 128 128" fill="none" xmlns="http://www.w3.org/2000/svg">
<path d="M128 17.7982C128 12.2278 126.412 7.81959 123.281 4.69859C110.713 -7.82301 77.6678 5.4916 48.0388 35.0208C46.9622 36.094 45.9782 37.238 45.032 38.4104C44.7214 38.282 44.364 38.1672 43.953 38.0716C35.4198 36.0774 8.03302 40.7298 0.0604223 72.5814C-0.144755 73.3978 0.183422 74.2532 0.880622 74.724C1.21862 74.9544 1.60924 75.0676 1.99982 75.0676C2.41182 75.0676 2.82402 74.9408 3.17362 74.6868C13.9948 66.8372 22.676 63.68 30.2542 64.8422C29.7312 65.7904 29.2004 66.7152 28.6522 67.599C28.1618 68.39 28.281 69.4134 28.9392 70.0696L32.0774 73.1976L26.203 79.0502C25.826 79.4252 25.615 79.9348 25.615 80.4662C25.615 80.9974 25.826 81.5072 26.203 81.8822L45.8612 101.476C46.2518 101.865 46.7614 102.06 47.2732 102.06C47.785 102.06 48.2948 101.865 48.6854 101.476L54.5676 95.6126L57.7146 98.7494C58.1014 99.134 58.6112 99.3334 59.1268 99.3334C59.488 99.3334 59.8514 99.2356 60.1756 99.0364C61.0022 98.5266 61.8602 98.0314 62.743 97.5442C64.0448 105.16 60.8914 113.896 52.9158 124.82C52.4198 125.499 52.4022 126.417 52.8708 127.115C53.2478 127.677 53.8748 127.999 54.531 127.999C54.6912 127.999 54.8532 127.98 55.0134 127.941C86.8944 120.013 91.6052 92.722 89.6404 84.2102C89.5202 83.6908 89.363 83.2818 89.1926 82.9192C90.4636 81.9148 91.702 80.8656 92.8592 79.7122C114.207 58.4368 128 34.1322 128 17.7982ZM32.115 61.097C24.3122 59.4524 15.738 61.7396 5.55642 68.222C10.5642 54.3256 19.6854 47.761 26.8416 44.6692C32.2068 42.3528 37.0896 41.7044 40.2146 41.7044C41.0526 41.7044 41.7614 41.7512 42.322 41.8236L32.115 61.097ZM47.2732 97.2356L30.449 80.4662L34.91 76.0228L49.445 90.5074L51.7342 92.7884L47.2732 97.2356ZM83.0662 101.146C79.9724 108.312 73.3826 117.443 59.3924 122.449C65.8846 112.31 68.1794 103.771 66.533 95.9896L85.8806 85.8098C86.2282 88.4388 85.9744 94.4076 83.0662 101.146ZM69.3786 89.7298C65.8612 91.4232 62.5114 93.0326 59.4372 94.8176L32.8728 68.343C34.3074 65.8866 35.6336 63.2188 36.9768 60.4632L45.0984 45.129C46.7982 42.4978 48.6814 40.0276 50.863 37.8528C77.9686 10.8372 109.834 -3.04761 120.457 7.53059C122.808 9.87439 124 13.3294 124 17.7982C124 32.888 110.349 56.6322 90.035 76.8802C84.3768 82.5188 76.7518 86.1848 69.3786 89.7298Z" fill="currentColor"/>
<path d="M85.4493 25.7067C83.1701 27.9743 81.9141 30.9919 81.9141 34.2027C81.9141 37.4157 83.1701 40.4333 85.4493 42.7009C87.7989 45.0387 90.8849 46.2087 93.9707 46.2087C97.0567 46.2087 100.143 45.0387 102.49 42.7009C104.77 40.4333 106.023 37.4157 106.023 34.2027C106.023 30.9919 104.77 27.9743 102.49 25.7067C97.7951 21.0309 90.1485 21.0309 85.4493 25.7067ZM99.6701 39.8649C96.5255 42.9937 91.4141 42.9937 88.2697 39.8649C86.7521 38.3531 85.9141 36.3433 85.9141 34.2027C85.9141 32.0641 86.7521 30.0543 88.2697 28.5425C89.8419 26.9781 91.9063 26.1969 93.9707 26.1969C96.0353 26.1969 98.0977 26.9781 99.6701 28.5425C101.187 30.0543 102.023 32.0641 102.023 34.2027C102.023 36.3433 101.187 38.3531 99.6701 39.8649Z" fill="currentColor"/>
<path d="M32.9296 94.2945C32.1504 93.5113 30.8848 93.5113 30.1016 94.2907L10.1114 114.215C9.33001 114.994 9.32621 116.259 10.1074 117.043C10.498 117.435 11.0098 117.631 11.5234 117.631C12.0332 117.631 12.545 117.435 12.9356 117.047L32.9258 97.1227C33.707 96.3433 33.711 95.0777 32.9296 94.2945Z" fill="currentColor"/>
<path d="M11.4495 103.947C11.9593 103.947 12.4709 103.751 12.8617 103.363L26.0257 90.2418C26.8069 89.4624 26.8089 88.1968 26.0295 87.4136C25.2503 86.6304 23.9847 86.6284 23.2015 87.4096L10.0373 100.531C9.25612 101.31 9.25412 102.576 10.0335 103.359C10.4241 103.751 10.9359 103.947 11.4495 103.947Z" fill="currentColor"/>
<path d="M37.0041 101.167L23.8401 114.289C23.0589 115.068 23.0569 116.334 23.8363 117.117C24.2269 117.509 24.7385 117.705 25.2523 117.705C25.7619 117.705 26.2737 117.509 26.6643 117.121L39.8285 104C40.6097 103.22 40.6117 101.955 39.8323 101.171C39.0531 100.388 37.7873 100.386 37.0041 101.167Z" fill="currentColor"/>
</svg>
