<svg width="24" height="24" viewBox="0 0 24 24" fill="none" xmlns="http://www.w3.org/2000/svg">
<path d="M11.6039 16.3636V15.8161L13.7814 12.7607H11.5996V12H14.9405V12.5476L12.7608 15.603H14.9448V16.3636H11.6039Z" fill="currentColor"/>
<path d="M16.5753 12V16.3636H15.6527V12H16.5753Z" fill="currentColor"/>
<path fill-rule="evenodd" clip-rule="evenodd" d="M17.3343 12V16.3636H18.2569V14.9489H19.0325C19.3677 14.9489 19.6532 14.8871 19.889 14.7635C20.1262 14.6399 20.3074 14.4673 20.4324 14.2457C20.5574 14.0241 20.6199 13.7685 20.6199 13.4787C20.6199 13.1889 20.5581 12.9332 20.4345 12.7116C20.3123 12.4886 20.1348 12.3146 19.9018 12.1896C19.6689 12.0632 19.3869 12 19.0559 12H17.3343ZM18.2569 14.2095H18.8833C19.0609 14.2095 19.2072 14.179 19.3223 14.1179C19.4387 14.0554 19.5254 13.9695 19.5822 13.8601C19.6404 13.7493 19.6696 13.6222 19.6696 13.4787C19.6696 13.3338 19.6404 13.2074 19.5822 13.0994C19.5254 12.9901 19.4387 12.9055 19.3223 12.8459C19.2058 12.7848 19.0581 12.7543 18.8791 12.7543H18.2569V14.2095Z" fill="currentColor"/>
<path fill-rule="evenodd" clip-rule="evenodd" d="M21.1994 9.59222H23.0064C23.3892 9.59222 23.6995 9.90263 23.6995 10.2854V17.959C23.6995 18.3417 23.3891 18.6521 23.0064 18.6521H9.21237C8.82959 18.6521 8.51927 18.3417 8.51927 17.959V10.2853C8.51927 9.90258 8.82959 9.59222 9.21237 9.59222H19.8131V1.38619H8.94677V8.30119C8.94677 8.68392 8.63646 8.99428 8.25368 8.99428H0.994852C0.61207 8.99428 0.301758 8.68392 0.301758 8.30119V8.07656C0.301758 8.0712 0.302111 8.06587 0.302465 8.06053L0.30307 8.0498L0.303335 8.04226C0.303671 8.03229 0.304009 8.02228 0.304945 8.01225C0.305534 8.00603 0.306449 7.99987 0.307367 7.99368L0.308742 7.98413L0.309839 7.97577C0.311152 7.96565 0.312466 7.95552 0.314414 7.94545C0.315447 7.94014 0.316736 7.93496 0.318026 7.92977L0.320086 7.92131L0.321124 7.91675C0.32395 7.90431 0.326765 7.89192 0.330398 7.87964C0.331579 7.87564 0.332973 7.8717 0.334372 7.86775L0.336961 7.86028C0.341883 7.84538 0.346805 7.83056 0.352711 7.81594C0.353984 7.81282 0.355429 7.80977 0.356875 7.80672L0.359977 7.8C0.366586 7.78481 0.373242 7.76962 0.381023 7.75486C0.382611 7.75179 0.384385 7.74883 0.386157 7.74587L0.390023 7.73925C0.397842 7.72527 0.406133 7.71044 0.415055 7.69692C0.418152 7.69222 0.42154 7.68768 0.424924 7.68314L0.430992 7.67489L0.436783 7.66673C0.442607 7.65849 0.448439 7.65023 0.454852 7.64227C0.469195 7.62441 0.48443 7.6072 0.500648 7.5907L7.75943 0.207188C7.7742 0.192188 7.78971 0.178172 7.8056 0.164719C7.80892 0.161848 7.81232 0.159131 7.81573 0.156398L7.81938 0.153469C7.83166 0.143578 7.84418 0.134156 7.85702 0.125203L7.86275 0.121225L7.87109 0.1155C7.90582 0.0924844 7.94229 0.0727969 7.98012 0.0565781L7.99023 0.0524323L7.9953 0.0503906C8.01012 0.0444375 8.02512 0.0390469 8.04021 0.034125L8.04593 0.0322637L8.05568 0.0291562C8.07546 0.0232969 8.09543 0.0180937 8.11568 0.0139219L8.11999 0.0132188C8.13893 0.00946875 8.15796 0.00670313 8.17718 0.00454688L8.1941 0.00295313C8.21088 0.0015 8.22766 0.00065625 8.24449 0.00046875L8.24883 0.000237625L8.25377 0H20.5063C20.8891 0 21.1994 0.310359 21.1994 0.693094V9.59222ZM2.4274 7.60819H7.56063V2.38678L2.4274 7.60819ZM9.90551 17.2659H22.3133V10.9785H9.90551V17.2659Z" fill="currentColor"/>
<path d="M20.5053 24.0001H0.993875C0.611094 24.0001 0.300781 23.6897 0.300781 23.307V12.0429C0.300781 11.6602 0.611094 11.3499 0.993875 11.3499C1.37666 11.3499 1.68697 11.6602 1.68697 12.0429V22.6138H19.8122V21.0698C19.8122 20.6871 20.1225 20.3767 20.5053 20.3767C20.888 20.3767 21.1984 20.6871 21.1984 21.0698V23.3069C21.1984 23.6897 20.8881 24.0001 20.5053 24.0001Z" fill="currentColor"/>
</svg>
